<?xml version="1.0" encoding="utf-8" standalone="no"?>
<!DOCTYPE svg PUBLIC "-//W3C//DTD SVG 1.1//EN"
  "http://www.w3.org/Graphics/SVG/1.1/DTD/svg11.dtd">
<!-- Created with matplotlib (https://matplotlib.org/) -->
<svg height="360pt" version="1.1" viewBox="0 0 360 360" width="360pt" xmlns="http://www.w3.org/2000/svg" xmlns:xlink="http://www.w3.org/1999/xlink">
 <defs>
  <style type="text/css">
*{stroke-linecap:butt;stroke-linejoin:round;}
  </style>
 </defs>
 <g id="figure_1">
  <g id="patch_1">
   <path d="M 0 360 
L 360 360 
L 360 0 
L 0 0 
z
" style="fill:#ffffff;"/>
  </g>
  <g id="axes_1">
   <g id="patch_2">
    <path d="M 45 315 
L 324 315 
L 324 43.2 
L 45 43.2 
z
" style="fill:#ffffff;"/>
   </g>
   <g id="PathCollection_1">
    <defs>
     <path d="M 0 3 
C 0.795609 3 1.55874 2.683901 2.12132 2.12132 
C 2.683901 1.55874 3 0.795609 3 0 
C 3 -0.795609 2.683901 -1.55874 2.12132 -2.12132 
C 1.55874 -2.683901 0.795609 -3 0 -3 
C -0.795609 -3 -1.55874 -2.683901 -2.12132 -2.12132 
C -2.683901 -1.55874 -3 -0.795609 -3 0 
C -3 0.795609 -2.683901 1.55874 -2.12132 2.12132 
C -1.55874 2.683901 -0.795609 3 0 3 
z
" id="C0_0_27e963d7a3"/>
    </defs>
    <g clip-path="url(#pfd10563a4b)">
     <use style="fill:#440154;stroke:#440154;" x="272.247566" xlink:href="#C0_0_27e963d7a3" y="167.78664"/>
    </g>
    <g clip-path="url(#pfd10563a4b)">
     <use style="fill:#440154;stroke:#440154;" x="200.678207" xlink:href="#C0_0_27e963d7a3" y="139.256631"/>
    </g>
    <g clip-path="url(#pfd10563a4b)">
     <use style="fill:#440154;stroke:#440154;" x="199.599348" xlink:href="#C0_0_27e963d7a3" y="202.457391"/>
    </g>
    <g clip-path="url(#pfd10563a4b)">
     <use style="fill:#440154;stroke:#440154;" x="161.918494" xlink:href="#C0_0_27e963d7a3" y="205.520721"/>
    </g>
    <g clip-path="url(#pfd10563a4b)">
     <use style="fill:#440154;stroke:#440154;" x="212.823344" xlink:href="#C0_0_27e963d7a3" y="194.824192"/>
    </g>
    <g clip-path="url(#pfd10563a4b)">
     <use style="fill:#440154;stroke:#440154;" x="91.727053" xlink:href="#C0_0_27e963d7a3" y="177.971119"/>
    </g>
    <g clip-path="url(#pfd10563a4b)">
     <use style="fill:#440154;stroke:#440154;" x="194.587355" xlink:href="#C0_0_27e963d7a3" y="223.620074"/>
    </g>
    <g clip-path="url(#pfd10563a4b)">
     <use style="fill:#440154;stroke:#440154;" x="149.400161" xlink:href="#C0_0_27e963d7a3" y="173.764112"/>
    </g>
    <g clip-path="url(#pfd10563a4b)">
     <use style="fill:#440154;stroke:#440154;" x="276.881155" xlink:href="#C0_0_27e963d7a3" y="131.307917"/>
    </g>
    <g clip-path="url(#pfd10563a4b)">
     <use style="fill:#440154;stroke:#440154;" x="178.563891" xlink:href="#C0_0_27e963d7a3" y="204.679833"/>
    </g>
    <g clip-path="url(#pfd10563a4b)">
     <use style="fill:#440154;stroke:#440154;" x="174.996544" xlink:href="#C0_0_27e963d7a3" y="201.985819"/>
    </g>
    <g clip-path="url(#pfd10563a4b)">
     <use style="fill:#440154;stroke:#440154;" x="106.888011" xlink:href="#C0_0_27e963d7a3" y="302.645455"/>
    </g>
    <g clip-path="url(#pfd10563a4b)">
     <use style="fill:#440154;stroke:#440154;" x="289.048007" xlink:href="#C0_0_27e963d7a3" y="178.736653"/>
    </g>
    <g clip-path="url(#pfd10563a4b)">
     <use style="fill:#440154;stroke:#440154;" x="156.268876" xlink:href="#C0_0_27e963d7a3" y="215.656898"/>
    </g>
    <g clip-path="url(#pfd10563a4b)">
     <use style="fill:#440154;stroke:#440154;" x="167.725195" xlink:href="#C0_0_27e963d7a3" y="176.420778"/>
    </g>
    <g clip-path="url(#pfd10563a4b)">
     <use style="fill:#440154;stroke:#440154;" x="239.082068" xlink:href="#C0_0_27e963d7a3" y="215.088452"/>
    </g>
    <g clip-path="url(#pfd10563a4b)">
     <use style="fill:#440154;stroke:#440154;" x="156.931029" xlink:href="#C0_0_27e963d7a3" y="174.804126"/>
    </g>
    <g clip-path="url(#pfd10563a4b)">
     <use style="fill:#440154;stroke:#440154;" x="209.202844" xlink:href="#C0_0_27e963d7a3" y="194.266003"/>
    </g>
    <g clip-path="url(#pfd10563a4b)">
     <use style="fill:#440154;stroke:#440154;" x="167.887857" xlink:href="#C0_0_27e963d7a3" y="215.388735"/>
    </g>
    <g clip-path="url(#pfd10563a4b)">
     <use style="fill:#440154;stroke:#440154;" x="172.381002" xlink:href="#C0_0_27e963d7a3" y="208.686813"/>
    </g>
    <g clip-path="url(#pfd10563a4b)">
     <use style="fill:#440154;stroke:#440154;" x="95.761449" xlink:href="#C0_0_27e963d7a3" y="117.393285"/>
    </g>
    <g clip-path="url(#pfd10563a4b)">
     <use style="fill:#440154;stroke:#440154;" x="169.265698" xlink:href="#C0_0_27e963d7a3" y="205.187581"/>
    </g>
    <g clip-path="url(#pfd10563a4b)">
     <use style="fill:#440154;stroke:#440154;" x="151.851868" xlink:href="#C0_0_27e963d7a3" y="175.088278"/>
    </g>
    <g clip-path="url(#pfd10563a4b)">
     <use style="fill:#440154;stroke:#440154;" x="270.200888" xlink:href="#C0_0_27e963d7a3" y="182.617662"/>
    </g>
    <g clip-path="url(#pfd10563a4b)">
     <use style="fill:#440154;stroke:#440154;" x="169.731611" xlink:href="#C0_0_27e963d7a3" y="192.567282"/>
    </g>
    <g clip-path="url(#pfd10563a4b)">
     <use style="fill:#440154;stroke:#440154;" x="67.540464" xlink:href="#C0_0_27e963d7a3" y="294.038752"/>
    </g>
    <g clip-path="url(#pfd10563a4b)">
     <use style="fill:#440154;stroke:#440154;" x="311.318182" xlink:href="#C0_0_27e963d7a3" y="191.28009"/>
    </g>
    <g clip-path="url(#pfd10563a4b)">
     <use style="fill:#440154;stroke:#440154;" x="247.890794" xlink:href="#C0_0_27e963d7a3" y="207.835977"/>
    </g>
    <g clip-path="url(#pfd10563a4b)">
     <use style="fill:#440154;stroke:#440154;" x="215.24814" xlink:href="#C0_0_27e963d7a3" y="198.577086"/>
    </g>
    <g clip-path="url(#pfd10563a4b)">
     <use style="fill:#440154;stroke:#440154;" x="163.533563" xlink:href="#C0_0_27e963d7a3" y="217.910703"/>
    </g>
    <g clip-path="url(#pfd10563a4b)">
     <use style="fill:#440154;stroke:#440154;" x="174.328958" xlink:href="#C0_0_27e963d7a3" y="172.906255"/>
    </g>
    <g clip-path="url(#pfd10563a4b)">
     <use style="fill:#440154;stroke:#440154;" x="174.195271" xlink:href="#C0_0_27e963d7a3" y="235.115193"/>
    </g>
    <g clip-path="url(#pfd10563a4b)">
     <use style="fill:#440154;stroke:#440154;" x="242.810296" xlink:href="#C0_0_27e963d7a3" y="151.983386"/>
    </g>
    <g clip-path="url(#pfd10563a4b)">
     <use style="fill:#440154;stroke:#440154;" x="220.257793" xlink:href="#C0_0_27e963d7a3" y="208.325181"/>
    </g>
    <g clip-path="url(#pfd10563a4b)">
     <use style="fill:#440154;stroke:#440154;" x="167.360255" xlink:href="#C0_0_27e963d7a3" y="229.608597"/>
    </g>
    <g clip-path="url(#pfd10563a4b)">
     <use style="fill:#440154;stroke:#440154;" x="151.701696" xlink:href="#C0_0_27e963d7a3" y="214.414487"/>
    </g>
    <g clip-path="url(#pfd10563a4b)">
     <use style="fill:#440154;stroke:#440154;" x="170.650382" xlink:href="#C0_0_27e963d7a3" y="208.679525"/>
    </g>
    <g clip-path="url(#pfd10563a4b)">
     <use style="fill:#440154;stroke:#440154;" x="110.412514" xlink:href="#C0_0_27e963d7a3" y="223.520953"/>
    </g>
    <g clip-path="url(#pfd10563a4b)">
     <use style="fill:#440154;stroke:#440154;" x="108.359829" xlink:href="#C0_0_27e963d7a3" y="234.658176"/>
    </g>
    <g clip-path="url(#pfd10563a4b)">
     <use style="fill:#440154;stroke:#440154;" x="168.989636" xlink:href="#C0_0_27e963d7a3" y="189.341021"/>
    </g>
    <g clip-path="url(#pfd10563a4b)">
     <use style="fill:#440154;stroke:#440154;" x="132.804306" xlink:href="#C0_0_27e963d7a3" y="257.130188"/>
    </g>
    <g clip-path="url(#pfd10563a4b)">
     <use style="fill:#440154;stroke:#440154;" x="140.008078" xlink:href="#C0_0_27e963d7a3" y="224.721409"/>
    </g>
    <g clip-path="url(#pfd10563a4b)">
     <use style="fill:#440154;stroke:#440154;" x="171.601083" xlink:href="#C0_0_27e963d7a3" y="202.670975"/>
    </g>
    <g clip-path="url(#pfd10563a4b)">
     <use style="fill:#440154;stroke:#440154;" x="220.482997" xlink:href="#C0_0_27e963d7a3" y="206.877142"/>
    </g>
    <g clip-path="url(#pfd10563a4b)">
     <use style="fill:#440154;stroke:#440154;" x="140.734" xlink:href="#C0_0_27e963d7a3" y="204.942652"/>
    </g>
    <g clip-path="url(#pfd10563a4b)">
     <use style="fill:#440154;stroke:#440154;" x="128.802555" xlink:href="#C0_0_27e963d7a3" y="292.419803"/>
    </g>
    <g clip-path="url(#pfd10563a4b)">
     <use style="fill:#440154;stroke:#440154;" x="188.537054" xlink:href="#C0_0_27e963d7a3" y="184.02099"/>
    </g>
    <g clip-path="url(#pfd10563a4b)">
     <use style="fill:#440154;stroke:#440154;" x="126.936213" xlink:href="#C0_0_27e963d7a3" y="213.120923"/>
    </g>
    <g clip-path="url(#pfd10563a4b)">
     <use style="fill:#440154;stroke:#440154;" x="194.60933" xlink:href="#C0_0_27e963d7a3" y="169.057769"/>
    </g>
    <g clip-path="url(#pfd10563a4b)">
     <use style="fill:#440154;stroke:#440154;" x="88.633084" xlink:href="#C0_0_27e963d7a3" y="261.07209"/>
    </g>
    <g clip-path="url(#pfd10563a4b)">
     <use style="fill:#440154;stroke:#440154;" x="200.308994" xlink:href="#C0_0_27e963d7a3" y="191.557408"/>
    </g>
    <g clip-path="url(#pfd10563a4b)">
     <use style="fill:#440154;stroke:#440154;" x="204.998565" xlink:href="#C0_0_27e963d7a3" y="200.171903"/>
    </g>
    <g clip-path="url(#pfd10563a4b)">
     <use style="fill:#440154;stroke:#440154;" x="149.317179" xlink:href="#C0_0_27e963d7a3" y="199.004615"/>
    </g>
    <g clip-path="url(#pfd10563a4b)">
     <use style="fill:#440154;stroke:#440154;" x="171.121527" xlink:href="#C0_0_27e963d7a3" y="190.685016"/>
    </g>
    <g clip-path="url(#pfd10563a4b)">
     <use style="fill:#440154;stroke:#440154;" x="161.250298" xlink:href="#C0_0_27e963d7a3" y="219.992688"/>
    </g>
    <g clip-path="url(#pfd10563a4b)">
     <use style="fill:#440154;stroke:#440154;" x="252.586588" xlink:href="#C0_0_27e963d7a3" y="182.597458"/>
    </g>
    <g clip-path="url(#pfd10563a4b)">
     <use style="fill:#440154;stroke:#440154;" x="172.432663" xlink:href="#C0_0_27e963d7a3" y="187.790831"/>
    </g>
    <g clip-path="url(#pfd10563a4b)">
     <use style="fill:#440154;stroke:#440154;" x="144.871879" xlink:href="#C0_0_27e963d7a3" y="201.127274"/>
    </g>
    <g clip-path="url(#pfd10563a4b)">
     <use style="fill:#440154;stroke:#440154;" x="167.831416" xlink:href="#C0_0_27e963d7a3" y="204.723211"/>
    </g>
    <g clip-path="url(#pfd10563a4b)">
     <use style="fill:#440154;stroke:#440154;" x="143.191446" xlink:href="#C0_0_27e963d7a3" y="201.783125"/>
    </g>
    <g clip-path="url(#pfd10563a4b)">
     <use style="fill:#440154;stroke:#440154;" x="188.689367" xlink:href="#C0_0_27e963d7a3" y="220.289895"/>
    </g>
    <g clip-path="url(#pfd10563a4b)">
     <use style="fill:#440154;stroke:#440154;" x="145.281104" xlink:href="#C0_0_27e963d7a3" y="207.094207"/>
    </g>
    <g clip-path="url(#pfd10563a4b)">
     <use style="fill:#440154;stroke:#440154;" x="146.239564" xlink:href="#C0_0_27e963d7a3" y="207.072829"/>
    </g>
    <g clip-path="url(#pfd10563a4b)">
     <use style="fill:#440154;stroke:#440154;" x="194.795225" xlink:href="#C0_0_27e963d7a3" y="183.21402"/>
    </g>
    <g clip-path="url(#pfd10563a4b)">
     <use style="fill:#440154;stroke:#440154;" x="227.015602" xlink:href="#C0_0_27e963d7a3" y="184.582607"/>
    </g>
    <g clip-path="url(#pfd10563a4b)">
     <use style="fill:#440154;stroke:#440154;" x="172.338552" xlink:href="#C0_0_27e963d7a3" y="176.2106"/>
    </g>
    <g clip-path="url(#pfd10563a4b)">
     <use style="fill:#440154;stroke:#440154;" x="184.186779" xlink:href="#C0_0_27e963d7a3" y="181.450853"/>
    </g>
    <g clip-path="url(#pfd10563a4b)">
     <use style="fill:#440154;stroke:#440154;" x="132.887835" xlink:href="#C0_0_27e963d7a3" y="220.315532"/>
    </g>
    <g clip-path="url(#pfd10563a4b)">
     <use style="fill:#440154;stroke:#440154;" x="149.910069" xlink:href="#C0_0_27e963d7a3" y="203.992195"/>
    </g>
    <g clip-path="url(#pfd10563a4b)">
     <use style="fill:#440154;stroke:#440154;" x="173.465137" xlink:href="#C0_0_27e963d7a3" y="186.559079"/>
    </g>
    <g clip-path="url(#pfd10563a4b)">
     <use style="fill:#440154;stroke:#440154;" x="305.595106" xlink:href="#C0_0_27e963d7a3" y="197.117987"/>
    </g>
    <g clip-path="url(#pfd10563a4b)">
     <use style="fill:#440154;stroke:#440154;" x="177.289113" xlink:href="#C0_0_27e963d7a3" y="203.470188"/>
    </g>
    <g clip-path="url(#pfd10563a4b)">
     <use style="fill:#440154;stroke:#440154;" x="201.994613" xlink:href="#C0_0_27e963d7a3" y="204.41974"/>
    </g>
    <g clip-path="url(#pfd10563a4b)">
     <use style="fill:#440154;stroke:#440154;" x="225.568899" xlink:href="#C0_0_27e963d7a3" y="194.399971"/>
    </g>
    <g clip-path="url(#pfd10563a4b)">
     <use style="fill:#440154;stroke:#440154;" x="144.043832" xlink:href="#C0_0_27e963d7a3" y="193.88293"/>
    </g>
    <g clip-path="url(#pfd10563a4b)">
     <use style="fill:#440154;stroke:#440154;" x="154.911001" xlink:href="#C0_0_27e963d7a3" y="228.180327"/>
    </g>
    <g clip-path="url(#pfd10563a4b)">
     <use style="fill:#440154;stroke:#440154;" x="202.541106" xlink:href="#C0_0_27e963d7a3" y="212.907427"/>
    </g>
    <g clip-path="url(#pfd10563a4b)">
     <use style="fill:#440154;stroke:#440154;" x="135.230769" xlink:href="#C0_0_27e963d7a3" y="231.365229"/>
    </g>
    <g clip-path="url(#pfd10563a4b)">
     <use style="fill:#440154;stroke:#440154;" x="178.213083" xlink:href="#C0_0_27e963d7a3" y="213.455755"/>
    </g>
    <g clip-path="url(#pfd10563a4b)">
     <use style="fill:#440154;stroke:#440154;" x="238.14664" xlink:href="#C0_0_27e963d7a3" y="169.503182"/>
    </g>
    <g clip-path="url(#pfd10563a4b)">
     <use style="fill:#440154;stroke:#440154;" x="178.107879" xlink:href="#C0_0_27e963d7a3" y="196.408652"/>
    </g>
    <g clip-path="url(#pfd10563a4b)">
     <use style="fill:#440154;stroke:#440154;" x="216.160062" xlink:href="#C0_0_27e963d7a3" y="167.644873"/>
    </g>
    <g clip-path="url(#pfd10563a4b)">
     <use style="fill:#440154;stroke:#440154;" x="191.331491" xlink:href="#C0_0_27e963d7a3" y="185.640957"/>
    </g>
    <g clip-path="url(#pfd10563a4b)">
     <use style="fill:#440154;stroke:#440154;" x="147.769373" xlink:href="#C0_0_27e963d7a3" y="210.146116"/>
    </g>
    <g clip-path="url(#pfd10563a4b)">
     <use style="fill:#440154;stroke:#440154;" x="212.04834" xlink:href="#C0_0_27e963d7a3" y="181.25525"/>
    </g>
    <g clip-path="url(#pfd10563a4b)">
     <use style="fill:#440154;stroke:#440154;" x="199.748842" xlink:href="#C0_0_27e963d7a3" y="200.162782"/>
    </g>
    <g clip-path="url(#pfd10563a4b)">
     <use style="fill:#440154;stroke:#440154;" x="176.191127" xlink:href="#C0_0_27e963d7a3" y="203.091626"/>
    </g>
    <g clip-path="url(#pfd10563a4b)">
     <use style="fill:#440154;stroke:#440154;" x="227.483491" xlink:href="#C0_0_27e963d7a3" y="161.573283"/>
    </g>
    <g clip-path="url(#pfd10563a4b)">
     <use style="fill:#440154;stroke:#440154;" x="189.248159" xlink:href="#C0_0_27e963d7a3" y="203.942666"/>
    </g>
    <g clip-path="url(#pfd10563a4b)">
     <use style="fill:#440154;stroke:#440154;" x="129.786203" xlink:href="#C0_0_27e963d7a3" y="218.719429"/>
    </g>
    <g clip-path="url(#pfd10563a4b)">
     <use style="fill:#440154;stroke:#440154;" x="192.914695" xlink:href="#C0_0_27e963d7a3" y="206.937171"/>
    </g>
    <g clip-path="url(#pfd10563a4b)">
     <use style="fill:#440154;stroke:#440154;" x="264.302513" xlink:href="#C0_0_27e963d7a3" y="252.510024"/>
    </g>
    <g clip-path="url(#pfd10563a4b)">
     <use style="fill:#440154;stroke:#440154;" x="164.216942" xlink:href="#C0_0_27e963d7a3" y="193.233833"/>
    </g>
    <g clip-path="url(#pfd10563a4b)">
     <use style="fill:#440154;stroke:#440154;" x="111.47124" xlink:href="#C0_0_27e963d7a3" y="230.577107"/>
    </g>
    <g clip-path="url(#pfd10563a4b)">
     <use style="fill:#440154;stroke:#440154;" x="141.784375" xlink:href="#C0_0_27e963d7a3" y="201.316246"/>
    </g>
    <g clip-path="url(#pfd10563a4b)">
     <use style="fill:#440154;stroke:#440154;" x="257.947818" xlink:href="#C0_0_27e963d7a3" y="203.94149"/>
    </g>
    <g clip-path="url(#pfd10563a4b)">
     <use style="fill:#440154;stroke:#440154;" x="136.157639" xlink:href="#C0_0_27e963d7a3" y="184.57074"/>
    </g>
    <g clip-path="url(#pfd10563a4b)">
     <use style="fill:#440154;stroke:#440154;" x="155.238595" xlink:href="#C0_0_27e963d7a3" y="216.393864"/>
    </g>
    <g clip-path="url(#pfd10563a4b)">
     <use style="fill:#440154;stroke:#440154;" x="209.852225" xlink:href="#C0_0_27e963d7a3" y="184.602464"/>
    </g>
    <g clip-path="url(#pfd10563a4b)">
     <use style="fill:#440154;stroke:#440154;" x="173.68718" xlink:href="#C0_0_27e963d7a3" y="143.247634"/>
    </g>
    <g clip-path="url(#pfd10563a4b)">
     <use style="fill:#440154;stroke:#440154;" x="122.923532" xlink:href="#C0_0_27e963d7a3" y="151.758344"/>
    </g>
    <g clip-path="url(#pfd10563a4b)">
     <use style="fill:#440154;stroke:#440154;" x="142.864235" xlink:href="#C0_0_27e963d7a3" y="178.786683"/>
    </g>
    <g clip-path="url(#pfd10563a4b)">
     <use style="fill:#440154;stroke:#440154;" x="187.60648" xlink:href="#C0_0_27e963d7a3" y="223.90559"/>
    </g>
    <g clip-path="url(#pfd10563a4b)">
     <use style="fill:#fde725;stroke:#fde725;" x="135.479152" xlink:href="#C0_0_27e963d7a3" y="158.243077"/>
    </g>
    <g clip-path="url(#pfd10563a4b)">
     <use style="fill:#fde725;stroke:#fde725;" x="129.950762" xlink:href="#C0_0_27e963d7a3" y="146.317062"/>
    </g>
    <g clip-path="url(#pfd10563a4b)">
     <use style="fill:#fde725;stroke:#fde725;" x="286.068785" xlink:href="#C0_0_27e963d7a3" y="192.345314"/>
    </g>
    <g clip-path="url(#pfd10563a4b)">
     <use style="fill:#fde725;stroke:#fde725;" x="115.962591" xlink:href="#C0_0_27e963d7a3" y="144.848947"/>
    </g>
    <g clip-path="url(#pfd10563a4b)">
     <use style="fill:#fde725;stroke:#fde725;" x="65.745191" xlink:href="#C0_0_27e963d7a3" y="161.767087"/>
    </g>
    <g clip-path="url(#pfd10563a4b)">
     <use style="fill:#fde725;stroke:#fde725;" x="122.602823" xlink:href="#C0_0_27e963d7a3" y="127.378876"/>
    </g>
    <g clip-path="url(#pfd10563a4b)">
     <use style="fill:#fde725;stroke:#fde725;" x="90.235134" xlink:href="#C0_0_27e963d7a3" y="156.846204"/>
    </g>
    <g clip-path="url(#pfd10563a4b)">
     <use style="fill:#fde725;stroke:#fde725;" x="207.607244" xlink:href="#C0_0_27e963d7a3" y="88.704582"/>
    </g>
    <g clip-path="url(#pfd10563a4b)">
     <use style="fill:#fde725;stroke:#fde725;" x="142.499512" xlink:href="#C0_0_27e963d7a3" y="142.747293"/>
    </g>
    <g clip-path="url(#pfd10563a4b)">
     <use style="fill:#fde725;stroke:#fde725;" x="155.035911" xlink:href="#C0_0_27e963d7a3" y="136.124381"/>
    </g>
    <g clip-path="url(#pfd10563a4b)">
     <use style="fill:#fde725;stroke:#fde725;" x="57.681818" xlink:href="#C0_0_27e963d7a3" y="153.848003"/>
    </g>
    <g clip-path="url(#pfd10563a4b)">
     <use style="fill:#fde725;stroke:#fde725;" x="127.3807" xlink:href="#C0_0_27e963d7a3" y="182.025159"/>
    </g>
    <g clip-path="url(#pfd10563a4b)">
     <use style="fill:#fde725;stroke:#fde725;" x="74.149115" xlink:href="#C0_0_27e963d7a3" y="233.042923"/>
    </g>
    <g clip-path="url(#pfd10563a4b)">
     <use style="fill:#fde725;stroke:#fde725;" x="85.927315" xlink:href="#C0_0_27e963d7a3" y="166.579927"/>
    </g>
    <g clip-path="url(#pfd10563a4b)">
     <use style="fill:#fde725;stroke:#fde725;" x="160.160466" xlink:href="#C0_0_27e963d7a3" y="138.528761"/>
    </g>
    <g clip-path="url(#pfd10563a4b)">
     <use style="fill:#fde725;stroke:#fde725;" x="140.955801" xlink:href="#C0_0_27e963d7a3" y="160.456193"/>
    </g>
    <g clip-path="url(#pfd10563a4b)">
     <use style="fill:#fde725;stroke:#fde725;" x="140.653805" xlink:href="#C0_0_27e963d7a3" y="170.624"/>
    </g>
    <g clip-path="url(#pfd10563a4b)">
     <use style="fill:#fde725;stroke:#fde725;" x="139.07943" xlink:href="#C0_0_27e963d7a3" y="116.62966"/>
    </g>
    <g clip-path="url(#pfd10563a4b)">
     <use style="fill:#fde725;stroke:#fde725;" x="139.822445" xlink:href="#C0_0_27e963d7a3" y="157.294033"/>
    </g>
    <g clip-path="url(#pfd10563a4b)">
     <use style="fill:#fde725;stroke:#fde725;" x="84.212626" xlink:href="#C0_0_27e963d7a3" y="161.928835"/>
    </g>
    <g clip-path="url(#pfd10563a4b)">
     <use style="fill:#fde725;stroke:#fde725;" x="118.207213" xlink:href="#C0_0_27e963d7a3" y="182.876225"/>
    </g>
    <g clip-path="url(#pfd10563a4b)">
     <use style="fill:#fde725;stroke:#fde725;" x="135.308335" xlink:href="#C0_0_27e963d7a3" y="153.827115"/>
    </g>
    <g clip-path="url(#pfd10563a4b)">
     <use style="fill:#fde725;stroke:#fde725;" x="174.718763" xlink:href="#C0_0_27e963d7a3" y="123.164624"/>
    </g>
    <g clip-path="url(#pfd10563a4b)">
     <use style="fill:#fde725;stroke:#fde725;" x="154.867533" xlink:href="#C0_0_27e963d7a3" y="160.26763"/>
    </g>
    <g clip-path="url(#pfd10563a4b)">
     <use style="fill:#fde725;stroke:#fde725;" x="160.749378" xlink:href="#C0_0_27e963d7a3" y="65.77672"/>
    </g>
    <g clip-path="url(#pfd10563a4b)">
     <use style="fill:#fde725;stroke:#fde725;" x="121.760757" xlink:href="#C0_0_27e963d7a3" y="144.795985"/>
    </g>
    <g clip-path="url(#pfd10563a4b)">
     <use style="fill:#fde725;stroke:#fde725;" x="59.982451" xlink:href="#C0_0_27e963d7a3" y="127.878642"/>
    </g>
    <g clip-path="url(#pfd10563a4b)">
     <use style="fill:#fde725;stroke:#fde725;" x="171.091692" xlink:href="#C0_0_27e963d7a3" y="191.676915"/>
    </g>
    <g clip-path="url(#pfd10563a4b)">
     <use style="fill:#fde725;stroke:#fde725;" x="208.921499" xlink:href="#C0_0_27e963d7a3" y="239.168985"/>
    </g>
    <g clip-path="url(#pfd10563a4b)">
     <use style="fill:#fde725;stroke:#fde725;" x="132.171702" xlink:href="#C0_0_27e963d7a3" y="187.486591"/>
    </g>
    <g clip-path="url(#pfd10563a4b)">
     <use style="fill:#fde725;stroke:#fde725;" x="151.528369" xlink:href="#C0_0_27e963d7a3" y="145.425887"/>
    </g>
    <g clip-path="url(#pfd10563a4b)">
     <use style="fill:#fde725;stroke:#fde725;" x="154.656092" xlink:href="#C0_0_27e963d7a3" y="150.768934"/>
    </g>
    <g clip-path="url(#pfd10563a4b)">
     <use style="fill:#fde725;stroke:#fde725;" x="141.078598" xlink:href="#C0_0_27e963d7a3" y="55.554545"/>
    </g>
   </g>
   <g id="matplotlib.axis_1">
    <g id="xtick_1">
     <g id="line2d_1">
      <defs>
       <path d="M 0 0 
L 0 3.5 
" id="m61dfbfb5a3" style="stroke:#000000;stroke-width:0.8;"/>
      </defs>
      <g>
       <use style="stroke:#000000;stroke-width:0.8;" x="65.919186" xlink:href="#m61dfbfb5a3" y="315"/>
      </g>
     </g>
     <g id="text_1">
      <!-- −0.3 -->
      <defs>
       <path d="M 10.59375 35.5 
L 73.1875 35.5 
L 73.1875 27.203125 
L 10.59375 27.203125 
z
" id="DejaVuSans-8722"/>
       <path d="M 31.78125 66.40625 
Q 24.171875 66.40625 20.328125 58.90625 
Q 16.5 51.421875 16.5 36.375 
Q 16.5 21.390625 20.328125 13.890625 
Q 24.171875 6.390625 31.78125 6.390625 
Q 39.453125 6.390625 43.28125 13.890625 
Q 47.125 21.390625 47.125 36.375 
Q 47.125 51.421875 43.28125 58.90625 
Q 39.453125 66.40625 31.78125 66.40625 
z
M 31.78125 74.21875 
Q 44.046875 74.21875 50.515625 64.515625 
Q 56.984375 54.828125 56.984375 36.375 
Q 56.984375 17.96875 50.515625 8.265625 
Q 44.046875 -1.421875 31.78125 -1.421875 
Q 19.53125 -1.421875 13.0625 8.265625 
Q 6.59375 17.96875 6.59375 36.375 
Q 6.59375 54.828125 13.0625 64.515625 
Q 19.53125 74.21875 31.78125 74.21875 
z
" id="DejaVuSans-48"/>
       <path d="M 10.6875 12.40625 
L 21 12.40625 
L 21 0 
L 10.6875 0 
z
" id="DejaVuSans-46"/>
       <path d="M 40.578125 39.3125 
Q 47.65625 37.796875 51.625 33 
Q 55.609375 28.21875 55.609375 21.1875 
Q 55.609375 10.40625 48.1875 4.484375 
Q 40.765625 -1.421875 27.09375 -1.421875 
Q 22.515625 -1.421875 17.65625 -0.515625 
Q 12.796875 0.390625 7.625 2.203125 
L 7.625 11.71875 
Q 11.71875 9.328125 16.59375 8.109375 
Q 21.484375 6.890625 26.8125 6.890625 
Q 36.078125 6.890625 40.9375 10.546875 
Q 45.796875 14.203125 45.796875 21.1875 
Q 45.796875 27.640625 41.28125 31.265625 
Q 36.765625 34.90625 28.71875 34.90625 
L 20.21875 34.90625 
L 20.21875 43.015625 
L 29.109375 43.015625 
Q 36.375 43.015625 40.234375 45.921875 
Q 44.09375 48.828125 44.09375 54.296875 
Q 44.09375 59.90625 40.109375 62.90625 
Q 36.140625 65.921875 28.71875 65.921875 
Q 24.65625 65.921875 20.015625 65.03125 
Q 15.375 64.15625 9.8125 62.3125 
L 9.8125 71.09375 
Q 15.4375 72.65625 20.34375 73.4375 
Q 25.25 74.21875 29.59375 74.21875 
Q 40.828125 74.21875 47.359375 69.109375 
Q 53.90625 64.015625 53.90625 55.328125 
Q 53.90625 49.265625 50.4375 45.09375 
Q 46.96875 40.921875 40.578125 39.3125 
z
" id="DejaVuSans-51"/>
      </defs>
      <g transform="translate(53.77778 329.598437)scale(0.1 -0.1)">
       <use xlink:href="#DejaVuSans-8722"/>
       <use x="83.789062" xlink:href="#DejaVuSans-48"/>
       <use x="147.412109" xlink:href="#DejaVuSans-46"/>
       <use x="179.199219" xlink:href="#DejaVuSans-51"/>
      </g>
     </g>
    </g>
    <g id="xtick_2">
     <g id="line2d_2">
      <g>
       <use style="stroke:#000000;stroke-width:0.8;" x="100.134226" xlink:href="#m61dfbfb5a3" y="315"/>
      </g>
     </g>
     <g id="text_2">
      <!-- −0.2 -->
      <defs>
       <path d="M 19.1875 8.296875 
L 53.609375 8.296875 
L 53.609375 0 
L 7.328125 0 
L 7.328125 8.296875 
Q 12.9375 14.109375 22.625 23.890625 
Q 32.328125 33.6875 34.8125 36.53125 
Q 39.546875 41.84375 41.421875 45.53125 
Q 43.3125 49.21875 43.3125 52.78125 
Q 43.3125 58.59375 39.234375 62.25 
Q 35.15625 65.921875 28.609375 65.921875 
Q 23.96875 65.921875 18.8125 64.3125 
Q 13.671875 62.703125 7.8125 59.421875 
L 7.8125 69.390625 
Q 13.765625 71.78125 18.9375 73 
Q 24.125 74.21875 28.421875 74.21875 
Q 39.75 74.21875 46.484375 68.546875 
Q 53.21875 62.890625 53.21875 53.421875 
Q 53.21875 48.921875 51.53125 44.890625 
Q 49.859375 40.875 45.40625 35.40625 
Q 44.1875 33.984375 37.640625 27.21875 
Q 31.109375 20.453125 19.1875 8.296875 
z
" id="DejaVuSans-50"/>
      </defs>
      <g transform="translate(87.992819 329.598437)scale(0.1 -0.1)">
       <use xlink:href="#DejaVuSans-8722"/>
       <use x="83.789062" xlink:href="#DejaVuSans-48"/>
       <use x="147.412109" xlink:href="#DejaVuSans-46"/>
       <use x="179.199219" xlink:href="#DejaVuSans-50"/>
      </g>
     </g>
    </g>
    <g id="xtick_3">
     <g id="line2d_3">
      <g>
       <use style="stroke:#000000;stroke-width:0.8;" x="134.349265" xlink:href="#m61dfbfb5a3" y="315"/>
      </g>
     </g>
     <g id="text_3">
      <!-- −0.1 -->
      <defs>
       <path d="M 12.40625 8.296875 
L 28.515625 8.296875 
L 28.515625 63.921875 
L 10.984375 60.40625 
L 10.984375 69.390625 
L 28.421875 72.90625 
L 38.28125 72.90625 
L 38.28125 8.296875 
L 54.390625 8.296875 
L 54.390625 0 
L 12.40625 0 
z
" id="DejaVuSans-49"/>
      </defs>
      <g transform="translate(122.207859 329.598437)scale(0.1 -0.1)">
       <use xlink:href="#DejaVuSans-8722"/>
       <use x="83.789062" xlink:href="#DejaVuSans-48"/>
       <use x="147.412109" xlink:href="#DejaVuSans-46"/>
       <use x="179.199219" xlink:href="#DejaVuSans-49"/>
      </g>
     </g>
    </g>
    <g id="xtick_4">
     <g id="line2d_4">
      <g>
       <use style="stroke:#000000;stroke-width:0.8;" x="168.564304" xlink:href="#m61dfbfb5a3" y="315"/>
      </g>
     </g>
     <g id="text_4">
      <!-- 0.0 -->
      <g transform="translate(160.612742 329.598437)scale(0.1 -0.1)">
       <use xlink:href="#DejaVuSans-48"/>
       <use x="63.623047" xlink:href="#DejaVuSans-46"/>
       <use x="95.410156" xlink:href="#DejaVuSans-48"/>
      </g>
     </g>
    </g>
    <g id="xtick_5">
     <g id="line2d_5">
      <g>
       <use style="stroke:#000000;stroke-width:0.8;" x="202.779344" xlink:href="#m61dfbfb5a3" y="315"/>
      </g>
     </g>
     <g id="text_5">
      <!-- 0.1 -->
      <g transform="translate(194.827781 329.598437)scale(0.1 -0.1)">
       <use xlink:href="#DejaVuSans-48"/>
       <use x="63.623047" xlink:href="#DejaVuSans-46"/>
       <use x="95.410156" xlink:href="#DejaVuSans-49"/>
      </g>
     </g>
    </g>
    <g id="xtick_6">
     <g id="line2d_6">
      <g>
       <use style="stroke:#000000;stroke-width:0.8;" x="236.994383" xlink:href="#m61dfbfb5a3" y="315"/>
      </g>
     </g>
     <g id="text_6">
      <!-- 0.2 -->
      <g transform="translate(229.04282 329.598437)scale(0.1 -0.1)">
       <use xlink:href="#DejaVuSans-48"/>
       <use x="63.623047" xlink:href="#DejaVuSans-46"/>
       <use x="95.410156" xlink:href="#DejaVuSans-50"/>
      </g>
     </g>
    </g>
    <g id="xtick_7">
     <g id="line2d_7">
      <g>
       <use style="stroke:#000000;stroke-width:0.8;" x="271.209422" xlink:href="#m61dfbfb5a3" y="315"/>
      </g>
     </g>
     <g id="text_7">
      <!-- 0.3 -->
      <g transform="translate(263.25786 329.598437)scale(0.1 -0.1)">
       <use xlink:href="#DejaVuSans-48"/>
       <use x="63.623047" xlink:href="#DejaVuSans-46"/>
       <use x="95.410156" xlink:href="#DejaVuSans-51"/>
      </g>
     </g>
    </g>
    <g id="xtick_8">
     <g id="line2d_8">
      <g>
       <use style="stroke:#000000;stroke-width:0.8;" x="305.424462" xlink:href="#m61dfbfb5a3" y="315"/>
      </g>
     </g>
     <g id="text_8">
      <!-- 0.4 -->
      <defs>
       <path d="M 37.796875 64.3125 
L 12.890625 25.390625 
L 37.796875 25.390625 
z
M 35.203125 72.90625 
L 47.609375 72.90625 
L 47.609375 25.390625 
L 58.015625 25.390625 
L 58.015625 17.1875 
L 47.609375 17.1875 
L 47.609375 0 
L 37.796875 0 
L 37.796875 17.1875 
L 4.890625 17.1875 
L 4.890625 26.703125 
z
" id="DejaVuSans-52"/>
      </defs>
      <g transform="translate(297.472899 329.598437)scale(0.1 -0.1)">
       <use xlink:href="#DejaVuSans-48"/>
       <use x="63.623047" xlink:href="#DejaVuSans-46"/>
       <use x="95.410156" xlink:href="#DejaVuSans-52"/>
      </g>
     </g>
    </g>
   </g>
   <g id="matplotlib.axis_2">
    <g id="ytick_1">
     <g id="line2d_9">
      <defs>
       <path d="M 0 0 
L -3.5 0 
" id="ma2552dcf93" style="stroke:#000000;stroke-width:0.8;"/>
      </defs>
      <g>
       <use style="stroke:#000000;stroke-width:0.8;" x="45" xlink:href="#ma2552dcf93" y="280.559425"/>
      </g>
     </g>
     <g id="text_9">
      <!-- −0.10 -->
      <g transform="translate(7.354687 284.358644)scale(0.1 -0.1)">
       <use xlink:href="#DejaVuSans-8722"/>
       <use x="83.789062" xlink:href="#DejaVuSans-48"/>
       <use x="147.412109" xlink:href="#DejaVuSans-46"/>
       <use x="179.199219" xlink:href="#DejaVuSans-49"/>
       <use x="242.822266" xlink:href="#DejaVuSans-48"/>
      </g>
     </g>
    </g>
    <g id="ytick_2">
     <g id="line2d_10">
      <g>
       <use style="stroke:#000000;stroke-width:0.8;" x="45" xlink:href="#ma2552dcf93" y="234.750984"/>
      </g>
     </g>
     <g id="text_10">
      <!-- −0.05 -->
      <defs>
       <path d="M 10.796875 72.90625 
L 49.515625 72.90625 
L 49.515625 64.59375 
L 19.828125 64.59375 
L 19.828125 46.734375 
Q 21.96875 47.46875 24.109375 47.828125 
Q 26.265625 48.1875 28.421875 48.1875 
Q 40.625 48.1875 47.75 41.5 
Q 54.890625 34.8125 54.890625 23.390625 
Q 54.890625 11.625 47.5625 5.09375 
Q 40.234375 -1.421875 26.90625 -1.421875 
Q 22.3125 -1.421875 17.546875 -0.640625 
Q 12.796875 0.140625 7.71875 1.703125 
L 7.71875 11.625 
Q 12.109375 9.234375 16.796875 8.0625 
Q 21.484375 6.890625 26.703125 6.890625 
Q 35.15625 6.890625 40.078125 11.328125 
Q 45.015625 15.765625 45.015625 23.390625 
Q 45.015625 31 40.078125 35.4375 
Q 35.15625 39.890625 26.703125 39.890625 
Q 22.75 39.890625 18.8125 39.015625 
Q 14.890625 38.140625 10.796875 36.28125 
z
" id="DejaVuSans-53"/>
      </defs>
      <g transform="translate(7.354687 238.550203)scale(0.1 -0.1)">
       <use xlink:href="#DejaVuSans-8722"/>
       <use x="83.789062" xlink:href="#DejaVuSans-48"/>
       <use x="147.412109" xlink:href="#DejaVuSans-46"/>
       <use x="179.199219" xlink:href="#DejaVuSans-48"/>
       <use x="242.822266" xlink:href="#DejaVuSans-53"/>
      </g>
     </g>
    </g>
    <g id="ytick_3">
     <g id="line2d_11">
      <g>
       <use style="stroke:#000000;stroke-width:0.8;" x="45" xlink:href="#ma2552dcf93" y="188.942543"/>
      </g>
     </g>
     <g id="text_11">
      <!-- 0.00 -->
      <g transform="translate(15.734375 192.741761)scale(0.1 -0.1)">
       <use xlink:href="#DejaVuSans-48"/>
       <use x="63.623047" xlink:href="#DejaVuSans-46"/>
       <use x="95.410156" xlink:href="#DejaVuSans-48"/>
       <use x="159.033203" xlink:href="#DejaVuSans-48"/>
      </g>
     </g>
    </g>
    <g id="ytick_4">
     <g id="line2d_12">
      <g>
       <use style="stroke:#000000;stroke-width:0.8;" x="45" xlink:href="#ma2552dcf93" y="143.134101"/>
      </g>
     </g>
     <g id="text_12">
      <!-- 0.05 -->
      <g transform="translate(15.734375 146.93332)scale(0.1 -0.1)">
       <use xlink:href="#DejaVuSans-48"/>
       <use x="63.623047" xlink:href="#DejaVuSans-46"/>
       <use x="95.410156" xlink:href="#DejaVuSans-48"/>
       <use x="159.033203" xlink:href="#DejaVuSans-53"/>
      </g>
     </g>
    </g>
    <g id="ytick_5">
     <g id="line2d_13">
      <g>
       <use style="stroke:#000000;stroke-width:0.8;" x="45" xlink:href="#ma2552dcf93" y="97.32566"/>
      </g>
     </g>
     <g id="text_13">
      <!-- 0.10 -->
      <g transform="translate(15.734375 101.124879)scale(0.1 -0.1)">
       <use xlink:href="#DejaVuSans-48"/>
       <use x="63.623047" xlink:href="#DejaVuSans-46"/>
       <use x="95.410156" xlink:href="#DejaVuSans-49"/>
       <use x="159.033203" xlink:href="#DejaVuSans-48"/>
      </g>
     </g>
    </g>
    <g id="ytick_6">
     <g id="line2d_14">
      <g>
       <use style="stroke:#000000;stroke-width:0.8;" x="45" xlink:href="#ma2552dcf93" y="51.517219"/>
      </g>
     </g>
     <g id="text_14">
      <!-- 0.15 -->
      <g transform="translate(15.734375 55.316438)scale(0.1 -0.1)">
       <use xlink:href="#DejaVuSans-48"/>
       <use x="63.623047" xlink:href="#DejaVuSans-46"/>
       <use x="95.410156" xlink:href="#DejaVuSans-49"/>
       <use x="159.033203" xlink:href="#DejaVuSans-53"/>
      </g>
     </g>
    </g>
   </g>
   <g id="patch_3">
    <path d="M 45 315 
L 45 43.2 
" style="fill:none;stroke:#000000;stroke-linecap:square;stroke-linejoin:miter;stroke-width:0.8;"/>
   </g>
   <g id="patch_4">
    <path d="M 324 315 
L 324 43.2 
" style="fill:none;stroke:#000000;stroke-linecap:square;stroke-linejoin:miter;stroke-width:0.8;"/>
   </g>
   <g id="patch_5">
    <path d="M 45 315 
L 324 315 
" style="fill:none;stroke:#000000;stroke-linecap:square;stroke-linejoin:miter;stroke-width:0.8;"/>
   </g>
   <g id="patch_6">
    <path d="M 45 43.2 
L 324 43.2 
" style="fill:none;stroke:#000000;stroke-linecap:square;stroke-linejoin:miter;stroke-width:0.8;"/>
   </g>
  </g>
 </g>
 <defs>
  <clipPath id="pfd10563a4b">
   <rect height="271.8" width="279" x="45" y="43.2"/>
  </clipPath>
 </defs>
</svg>
