<?xml version="1.0" encoding="utf-8" standalone="no"?>
<!DOCTYPE svg PUBLIC "-//W3C//DTD SVG 1.1//EN"
  "http://www.w3.org/Graphics/SVG/1.1/DTD/svg11.dtd">
<!-- Created with matplotlib (https://matplotlib.org/) -->
<svg height="360pt" version="1.1" viewBox="0 0 360 360" width="360pt" xmlns="http://www.w3.org/2000/svg" xmlns:xlink="http://www.w3.org/1999/xlink">
 <defs>
  <style type="text/css">
*{stroke-linecap:butt;stroke-linejoin:round;}
  </style>
 </defs>
 <g id="figure_1">
  <g id="patch_1">
   <path d="M 0 360 
L 360 360 
L 360 0 
L 0 0 
z
" style="fill:#ffffff;"/>
  </g>
  <g id="axes_1">
   <g id="patch_2">
    <path d="M 45 320.4 
L 324 320.4 
L 324 43.2 
L 45 43.2 
z
" style="fill:#ffffff;"/>
   </g>
   <g id="PathCollection_1">
    <defs>
     <path d="M 0 3 
C 0.795609 3 1.55874 2.683901 2.12132 2.12132 
C 2.683901 1.55874 3 0.795609 3 0 
C 3 -0.795609 2.683901 -1.55874 2.12132 -2.12132 
C 1.55874 -2.683901 0.795609 -3 0 -3 
C -0.795609 -3 -1.55874 -2.683901 -2.12132 -2.12132 
C -2.683901 -1.55874 -3 -0.795609 -3 0 
C -3 0.795609 -2.683901 1.55874 -2.12132 2.12132 
C -1.55874 2.683901 -0.795609 3 0 3 
z
" id="C0_0_646eedd22c"/>
    </defs>
    <g clip-path="url(#pac0d70b1f1)">
     <use style="fill:#440154;stroke:#440154;" x="213.362611" xlink:href="#C0_0_646eedd22c" y="195.437816"/>
    </g>
    <g clip-path="url(#pac0d70b1f1)">
     <use style="fill:#440154;stroke:#440154;" x="146.848246" xlink:href="#C0_0_646eedd22c" y="243.901171"/>
    </g>
    <g clip-path="url(#pac0d70b1f1)">
     <use style="fill:#440154;stroke:#440154;" x="82.780052" xlink:href="#C0_0_646eedd22c" y="190.382268"/>
    </g>
    <g clip-path="url(#pac0d70b1f1)">
     <use style="fill:#440154;stroke:#440154;" x="168.311772" xlink:href="#C0_0_646eedd22c" y="178.577427"/>
    </g>
    <g clip-path="url(#pac0d70b1f1)">
     <use style="fill:#440154;stroke:#440154;" x="117.521458" xlink:href="#C0_0_646eedd22c" y="190.418676"/>
    </g>
    <g clip-path="url(#pac0d70b1f1)">
     <use style="fill:#440154;stroke:#440154;" x="140.603795" xlink:href="#C0_0_646eedd22c" y="213.498106"/>
    </g>
    <g clip-path="url(#pac0d70b1f1)">
     <use style="fill:#440154;stroke:#440154;" x="91.77667" xlink:href="#C0_0_646eedd22c" y="166.343802"/>
    </g>
    <g clip-path="url(#pac0d70b1f1)">
     <use style="fill:#440154;stroke:#440154;" x="61.42987" xlink:href="#C0_0_646eedd22c" y="226.089717"/>
    </g>
    <g clip-path="url(#pac0d70b1f1)">
     <use style="fill:#440154;stroke:#440154;" x="311.318182" xlink:href="#C0_0_646eedd22c" y="209.771858"/>
    </g>
    <g clip-path="url(#pac0d70b1f1)">
     <use style="fill:#440154;stroke:#440154;" x="69.293155" xlink:href="#C0_0_646eedd22c" y="189.87111"/>
    </g>
    <g clip-path="url(#pac0d70b1f1)">
     <use style="fill:#440154;stroke:#440154;" x="179.683596" xlink:href="#C0_0_646eedd22c" y="175.242098"/>
    </g>
    <g clip-path="url(#pac0d70b1f1)">
     <use style="fill:#440154;stroke:#440154;" x="132.289692" xlink:href="#C0_0_646eedd22c" y="69.715886"/>
    </g>
    <g clip-path="url(#pac0d70b1f1)">
     <use style="fill:#440154;stroke:#440154;" x="135.272245" xlink:href="#C0_0_646eedd22c" y="196.817581"/>
    </g>
    <g clip-path="url(#pac0d70b1f1)">
     <use style="fill:#440154;stroke:#440154;" x="118.375098" xlink:href="#C0_0_646eedd22c" y="173.753327"/>
    </g>
    <g clip-path="url(#pac0d70b1f1)">
     <use style="fill:#440154;stroke:#440154;" x="73.009039" xlink:href="#C0_0_646eedd22c" y="221.389604"/>
    </g>
    <g clip-path="url(#pac0d70b1f1)">
     <use style="fill:#440154;stroke:#440154;" x="63.719776" xlink:href="#C0_0_646eedd22c" y="169.981067"/>
    </g>
    <g clip-path="url(#pac0d70b1f1)">
     <use style="fill:#440154;stroke:#440154;" x="182.246632" xlink:href="#C0_0_646eedd22c" y="206.65894"/>
    </g>
    <g clip-path="url(#pac0d70b1f1)">
     <use style="fill:#440154;stroke:#440154;" x="136.139641" xlink:href="#C0_0_646eedd22c" y="189.667136"/>
    </g>
    <g clip-path="url(#pac0d70b1f1)">
     <use style="fill:#440154;stroke:#440154;" x="74.168503" xlink:href="#C0_0_646eedd22c" y="180.484785"/>
    </g>
    <g clip-path="url(#pac0d70b1f1)">
     <use style="fill:#440154;stroke:#440154;" x="71.686021" xlink:href="#C0_0_646eedd22c" y="186.917095"/>
    </g>
    <g clip-path="url(#pac0d70b1f1)">
     <use style="fill:#440154;stroke:#440154;" x="264.191617" xlink:href="#C0_0_646eedd22c" y="250.463905"/>
    </g>
    <g clip-path="url(#pac0d70b1f1)">
     <use style="fill:#440154;stroke:#440154;" x="60.244632" xlink:href="#C0_0_646eedd22c" y="191.353894"/>
    </g>
    <g clip-path="url(#pac0d70b1f1)">
     <use style="fill:#440154;stroke:#440154;" x="100.450088" xlink:href="#C0_0_646eedd22c" y="221.281099"/>
    </g>
    <g clip-path="url(#pac0d70b1f1)">
     <use style="fill:#440154;stroke:#440154;" x="219.659069" xlink:href="#C0_0_646eedd22c" y="179.709317"/>
    </g>
    <g clip-path="url(#pac0d70b1f1)">
     <use style="fill:#440154;stroke:#440154;" x="81.166636" xlink:href="#C0_0_646eedd22c" y="203.254261"/>
    </g>
    <g clip-path="url(#pac0d70b1f1)">
     <use style="fill:#440154;stroke:#440154;" x="137.155518" xlink:href="#C0_0_646eedd22c" y="82.063796"/>
    </g>
    <g clip-path="url(#pac0d70b1f1)">
     <use style="fill:#440154;stroke:#440154;" x="88.693141" xlink:href="#C0_0_646eedd22c" y="186.573446"/>
    </g>
    <g clip-path="url(#pac0d70b1f1)">
     <use style="fill:#440154;stroke:#440154;" x="79.134353" xlink:href="#C0_0_646eedd22c" y="179.233139"/>
    </g>
    <g clip-path="url(#pac0d70b1f1)">
     <use style="fill:#440154;stroke:#440154;" x="74.768645" xlink:href="#C0_0_646eedd22c" y="193.016696"/>
    </g>
    <g clip-path="url(#pac0d70b1f1)">
     <use style="fill:#440154;stroke:#440154;" x="97.945406" xlink:href="#C0_0_646eedd22c" y="176.323111"/>
    </g>
    <g clip-path="url(#pac0d70b1f1)">
     <use style="fill:#440154;stroke:#440154;" x="61.569724" xlink:href="#C0_0_646eedd22c" y="224.299795"/>
    </g>
    <g clip-path="url(#pac0d70b1f1)">
     <use style="fill:#440154;stroke:#440154;" x="62.134201" xlink:href="#C0_0_646eedd22c" y="156.963279"/>
    </g>
    <g clip-path="url(#pac0d70b1f1)">
     <use style="fill:#440154;stroke:#440154;" x="180.695088" xlink:href="#C0_0_646eedd22c" y="220.458821"/>
    </g>
    <g clip-path="url(#pac0d70b1f1)">
     <use style="fill:#440154;stroke:#440154;" x="95.107189" xlink:href="#C0_0_646eedd22c" y="167.500183"/>
    </g>
    <g clip-path="url(#pac0d70b1f1)">
     <use style="fill:#440154;stroke:#440154;" x="61.713851" xlink:href="#C0_0_646eedd22c" y="162.439404"/>
    </g>
    <g clip-path="url(#pac0d70b1f1)">
     <use style="fill:#440154;stroke:#440154;" x="58.898627" xlink:href="#C0_0_646eedd22c" y="182.108053"/>
    </g>
    <g clip-path="url(#pac0d70b1f1)">
     <use style="fill:#440154;stroke:#440154;" x="95.000869" xlink:href="#C0_0_646eedd22c" y="184.258857"/>
    </g>
    <g clip-path="url(#pac0d70b1f1)">
     <use style="fill:#440154;stroke:#440154;" x="64.977472" xlink:href="#C0_0_646eedd22c" y="173.805336"/>
    </g>
    <g clip-path="url(#pac0d70b1f1)">
     <use style="fill:#440154;stroke:#440154;" x="178.356918" xlink:href="#C0_0_646eedd22c" y="127.453294"/>
    </g>
    <g clip-path="url(#pac0d70b1f1)">
     <use style="fill:#440154;stroke:#440154;" x="84.176927" xlink:href="#C0_0_646eedd22c" y="206.797489"/>
    </g>
    <g clip-path="url(#pac0d70b1f1)">
     <use style="fill:#440154;stroke:#440154;" x="89.12366" xlink:href="#C0_0_646eedd22c" y="127.515044"/>
    </g>
    <g clip-path="url(#pac0d70b1f1)">
     <use style="fill:#440154;stroke:#440154;" x="75.38857" xlink:href="#C0_0_646eedd22c" y="173.518185"/>
    </g>
    <g clip-path="url(#pac0d70b1f1)">
     <use style="fill:#440154;stroke:#440154;" x="70.579678" xlink:href="#C0_0_646eedd22c" y="193.579948"/>
    </g>
    <g clip-path="url(#pac0d70b1f1)">
     <use style="fill:#440154;stroke:#440154;" x="127.307721" xlink:href="#C0_0_646eedd22c" y="176.850667"/>
    </g>
    <g clip-path="url(#pac0d70b1f1)">
     <use style="fill:#440154;stroke:#440154;" x="68.471369" xlink:href="#C0_0_646eedd22c" y="194.814283"/>
    </g>
    <g clip-path="url(#pac0d70b1f1)">
     <use style="fill:#440154;stroke:#440154;" x="208.646409" xlink:href="#C0_0_646eedd22c" y="55.8"/>
    </g>
    <g clip-path="url(#pac0d70b1f1)">
     <use style="fill:#440154;stroke:#440154;" x="160.653657" xlink:href="#C0_0_646eedd22c" y="197.824518"/>
    </g>
    <g clip-path="url(#pac0d70b1f1)">
     <use style="fill:#440154;stroke:#440154;" x="62.398919" xlink:href="#C0_0_646eedd22c" y="187.565787"/>
    </g>
    <g clip-path="url(#pac0d70b1f1)">
     <use style="fill:#440154;stroke:#440154;" x="168.895784" xlink:href="#C0_0_646eedd22c" y="211.527736"/>
    </g>
    <g clip-path="url(#pac0d70b1f1)">
     <use style="fill:#440154;stroke:#440154;" x="81.257529" xlink:href="#C0_0_646eedd22c" y="131.260313"/>
    </g>
    <g clip-path="url(#pac0d70b1f1)">
     <use style="fill:#440154;stroke:#440154;" x="119.043177" xlink:href="#C0_0_646eedd22c" y="195.966563"/>
    </g>
    <g clip-path="url(#pac0d70b1f1)">
     <use style="fill:#440154;stroke:#440154;" x="96.105992" xlink:href="#C0_0_646eedd22c" y="190.005782"/>
    </g>
    <g clip-path="url(#pac0d70b1f1)">
     <use style="fill:#440154;stroke:#440154;" x="104.353394" xlink:href="#C0_0_646eedd22c" y="196.27535"/>
    </g>
    <g clip-path="url(#pac0d70b1f1)">
     <use style="fill:#440154;stroke:#440154;" x="88.487765" xlink:href="#C0_0_646eedd22c" y="204.50307"/>
    </g>
    <g clip-path="url(#pac0d70b1f1)">
     <use style="fill:#440154;stroke:#440154;" x="61.58468" xlink:href="#C0_0_646eedd22c" y="175.953359"/>
    </g>
    <g clip-path="url(#pac0d70b1f1)">
     <use style="fill:#440154;stroke:#440154;" x="162.131855" xlink:href="#C0_0_646eedd22c" y="193.89368"/>
    </g>
    <g clip-path="url(#pac0d70b1f1)">
     <use style="fill:#440154;stroke:#440154;" x="130.978638" xlink:href="#C0_0_646eedd22c" y="201.014901"/>
    </g>
    <g clip-path="url(#pac0d70b1f1)">
     <use style="fill:#440154;stroke:#440154;" x="60.421778" xlink:href="#C0_0_646eedd22c" y="198.515272"/>
    </g>
    <g clip-path="url(#pac0d70b1f1)">
     <use style="fill:#440154;stroke:#440154;" x="104.835151" xlink:href="#C0_0_646eedd22c" y="188.323202"/>
    </g>
    <g clip-path="url(#pac0d70b1f1)">
     <use style="fill:#440154;stroke:#440154;" x="58.039314" xlink:href="#C0_0_646eedd22c" y="196.646845"/>
    </g>
    <g clip-path="url(#pac0d70b1f1)">
     <use style="fill:#440154;stroke:#440154;" x="70.236784" xlink:href="#C0_0_646eedd22c" y="173.519532"/>
    </g>
    <g clip-path="url(#pac0d70b1f1)">
     <use style="fill:#440154;stroke:#440154;" x="98.503293" xlink:href="#C0_0_646eedd22c" y="189.465232"/>
    </g>
    <g clip-path="url(#pac0d70b1f1)">
     <use style="fill:#440154;stroke:#440154;" x="80.221546" xlink:href="#C0_0_646eedd22c" y="191.745195"/>
    </g>
    <g clip-path="url(#pac0d70b1f1)">
     <use style="fill:#440154;stroke:#440154;" x="60.669012" xlink:href="#C0_0_646eedd22c" y="212.376212"/>
    </g>
    <g clip-path="url(#pac0d70b1f1)">
     <use style="fill:#440154;stroke:#440154;" x="63.965536" xlink:href="#C0_0_646eedd22c" y="206.804561"/>
    </g>
    <g clip-path="url(#pac0d70b1f1)">
     <use style="fill:#440154;stroke:#440154;" x="90.734302" xlink:href="#C0_0_646eedd22c" y="218.137734"/>
    </g>
    <g clip-path="url(#pac0d70b1f1)">
     <use style="fill:#440154;stroke:#440154;" x="87.199358" xlink:href="#C0_0_646eedd22c" y="213.120852"/>
    </g>
    <g clip-path="url(#pac0d70b1f1)">
     <use style="fill:#440154;stroke:#440154;" x="79.025129" xlink:href="#C0_0_646eedd22c" y="168.860292"/>
    </g>
    <g clip-path="url(#pac0d70b1f1)">
     <use style="fill:#440154;stroke:#440154;" x="80.681679" xlink:href="#C0_0_646eedd22c" y="194.312194"/>
    </g>
    <g clip-path="url(#pac0d70b1f1)">
     <use style="fill:#440154;stroke:#440154;" x="106.997969" xlink:href="#C0_0_646eedd22c" y="192.393913"/>
    </g>
    <g clip-path="url(#pac0d70b1f1)">
     <use style="fill:#440154;stroke:#440154;" x="160.835147" xlink:href="#C0_0_646eedd22c" y="172.335986"/>
    </g>
    <g clip-path="url(#pac0d70b1f1)">
     <use style="fill:#440154;stroke:#440154;" x="67.72905" xlink:href="#C0_0_646eedd22c" y="193.098223"/>
    </g>
    <g clip-path="url(#pac0d70b1f1)">
     <use style="fill:#440154;stroke:#440154;" x="69.407732" xlink:href="#C0_0_646eedd22c" y="188.029095"/>
    </g>
    <g clip-path="url(#pac0d70b1f1)">
     <use style="fill:#440154;stroke:#440154;" x="89.835398" xlink:href="#C0_0_646eedd22c" y="195.015092"/>
    </g>
    <g clip-path="url(#pac0d70b1f1)">
     <use style="fill:#440154;stroke:#440154;" x="104.973538" xlink:href="#C0_0_646eedd22c" y="201.213845"/>
    </g>
    <g clip-path="url(#pac0d70b1f1)">
     <use style="fill:#440154;stroke:#440154;" x="122.541739" xlink:href="#C0_0_646eedd22c" y="145.479103"/>
    </g>
    <g clip-path="url(#pac0d70b1f1)">
     <use style="fill:#440154;stroke:#440154;" x="89.306286" xlink:href="#C0_0_646eedd22c" y="166.771028"/>
    </g>
    <g clip-path="url(#pac0d70b1f1)">
     <use style="fill:#440154;stroke:#440154;" x="70.65909" xlink:href="#C0_0_646eedd22c" y="167.648649"/>
    </g>
    <g clip-path="url(#pac0d70b1f1)">
     <use style="fill:#440154;stroke:#440154;" x="84.569201" xlink:href="#C0_0_646eedd22c" y="170.338638"/>
    </g>
    <g clip-path="url(#pac0d70b1f1)">
     <use style="fill:#440154;stroke:#440154;" x="81.037324" xlink:href="#C0_0_646eedd22c" y="220.249447"/>
    </g>
    <g clip-path="url(#pac0d70b1f1)">
     <use style="fill:#440154;stroke:#440154;" x="58.331443" xlink:href="#C0_0_646eedd22c" y="199.362652"/>
    </g>
    <g clip-path="url(#pac0d70b1f1)">
     <use style="fill:#440154;stroke:#440154;" x="99.743657" xlink:href="#C0_0_646eedd22c" y="220.527588"/>
    </g>
    <g clip-path="url(#pac0d70b1f1)">
     <use style="fill:#440154;stroke:#440154;" x="65.927707" xlink:href="#C0_0_646eedd22c" y="208.383527"/>
    </g>
    <g clip-path="url(#pac0d70b1f1)">
     <use style="fill:#440154;stroke:#440154;" x="104.363994" xlink:href="#C0_0_646eedd22c" y="184.136708"/>
    </g>
    <g clip-path="url(#pac0d70b1f1)">
     <use style="fill:#440154;stroke:#440154;" x="72.987893" xlink:href="#C0_0_646eedd22c" y="209.985144"/>
    </g>
    <g clip-path="url(#pac0d70b1f1)">
     <use style="fill:#440154;stroke:#440154;" x="71.052098" xlink:href="#C0_0_646eedd22c" y="193.385225"/>
    </g>
    <g clip-path="url(#pac0d70b1f1)">
     <use style="fill:#440154;stroke:#440154;" x="97.342689" xlink:href="#C0_0_646eedd22c" y="189.68222"/>
    </g>
    <g clip-path="url(#pac0d70b1f1)">
     <use style="fill:#440154;stroke:#440154;" x="88.606461" xlink:href="#C0_0_646eedd22c" y="228.346006"/>
    </g>
    <g clip-path="url(#pac0d70b1f1)">
     <use style="fill:#440154;stroke:#440154;" x="87.552582" xlink:href="#C0_0_646eedd22c" y="188.736275"/>
    </g>
    <g clip-path="url(#pac0d70b1f1)">
     <use style="fill:#440154;stroke:#440154;" x="73.827396" xlink:href="#C0_0_646eedd22c" y="180.985496"/>
    </g>
    <g clip-path="url(#pac0d70b1f1)">
     <use style="fill:#440154;stroke:#440154;" x="63.59015" xlink:href="#C0_0_646eedd22c" y="186.103132"/>
    </g>
    <g clip-path="url(#pac0d70b1f1)">
     <use style="fill:#440154;stroke:#440154;" x="86.860751" xlink:href="#C0_0_646eedd22c" y="124.301398"/>
    </g>
    <g clip-path="url(#pac0d70b1f1)">
     <use style="fill:#440154;stroke:#440154;" x="59.10849" xlink:href="#C0_0_646eedd22c" y="204.362998"/>
    </g>
    <g clip-path="url(#pac0d70b1f1)">
     <use style="fill:#440154;stroke:#440154;" x="66.316986" xlink:href="#C0_0_646eedd22c" y="166.036293"/>
    </g>
    <g clip-path="url(#pac0d70b1f1)">
     <use style="fill:#440154;stroke:#440154;" x="58.549083" xlink:href="#C0_0_646eedd22c" y="198.587939"/>
    </g>
    <g clip-path="url(#pac0d70b1f1)">
     <use style="fill:#440154;stroke:#440154;" x="82.324189" xlink:href="#C0_0_646eedd22c" y="181.050135"/>
    </g>
    <g clip-path="url(#pac0d70b1f1)">
     <use style="fill:#440154;stroke:#440154;" x="134.381852" xlink:href="#C0_0_646eedd22c" y="207.444995"/>
    </g>
    <g clip-path="url(#pac0d70b1f1)">
     <use style="fill:#440154;stroke:#440154;" x="62.778054" xlink:href="#C0_0_646eedd22c" y="177.810652"/>
    </g>
    <g clip-path="url(#pac0d70b1f1)">
     <use style="fill:#440154;stroke:#440154;" x="70.237" xlink:href="#C0_0_646eedd22c" y="206.590896"/>
    </g>
    <g clip-path="url(#pac0d70b1f1)">
     <use style="fill:#440154;stroke:#440154;" x="172.503394" xlink:href="#C0_0_646eedd22c" y="235.385863"/>
    </g>
    <g clip-path="url(#pac0d70b1f1)">
     <use style="fill:#440154;stroke:#440154;" x="244.669648" xlink:href="#C0_0_646eedd22c" y="218.991224"/>
    </g>
    <g clip-path="url(#pac0d70b1f1)">
     <use style="fill:#440154;stroke:#440154;" x="188.731608" xlink:href="#C0_0_646eedd22c" y="196.477819"/>
    </g>
    <g clip-path="url(#pac0d70b1f1)">
     <use style="fill:#440154;stroke:#440154;" x="85.651846" xlink:href="#C0_0_646eedd22c" y="163.55678"/>
    </g>
    <g clip-path="url(#pac0d70b1f1)">
     <use style="fill:#fde725;stroke:#fde725;" x="63.819013" xlink:href="#C0_0_646eedd22c" y="240.092517"/>
    </g>
    <g clip-path="url(#pac0d70b1f1)">
     <use style="fill:#fde725;stroke:#fde725;" x="64.139929" xlink:href="#C0_0_646eedd22c" y="255.328215"/>
    </g>
    <g clip-path="url(#pac0d70b1f1)">
     <use style="fill:#fde725;stroke:#fde725;" x="179.087409" xlink:href="#C0_0_646eedd22c" y="154.161749"/>
    </g>
    <g clip-path="url(#pac0d70b1f1)">
     <use style="fill:#fde725;stroke:#fde725;" x="99.488874" xlink:href="#C0_0_646eedd22c" y="245.445811"/>
    </g>
    <g clip-path="url(#pac0d70b1f1)">
     <use style="fill:#fde725;stroke:#fde725;" x="72.72141" xlink:href="#C0_0_646eedd22c" y="240.452892"/>
    </g>
    <g clip-path="url(#pac0d70b1f1)">
     <use style="fill:#fde725;stroke:#fde725;" x="167.374992" xlink:href="#C0_0_646eedd22c" y="246.650538"/>
    </g>
    <g clip-path="url(#pac0d70b1f1)">
     <use style="fill:#fde725;stroke:#fde725;" x="169.625807" xlink:href="#C0_0_646eedd22c" y="216.013988"/>
    </g>
    <g clip-path="url(#pac0d70b1f1)">
     <use style="fill:#fde725;stroke:#fde725;" x="110.5636" xlink:href="#C0_0_646eedd22c" y="298.350025"/>
    </g>
    <g clip-path="url(#pac0d70b1f1)">
     <use style="fill:#fde725;stroke:#fde725;" x="73.962049" xlink:href="#C0_0_646eedd22c" y="256.917427"/>
    </g>
    <g clip-path="url(#pac0d70b1f1)">
     <use style="fill:#fde725;stroke:#fde725;" x="77.29631" xlink:href="#C0_0_646eedd22c" y="257.992692"/>
    </g>
    <g clip-path="url(#pac0d70b1f1)">
     <use style="fill:#fde725;stroke:#fde725;" x="70.760968" xlink:href="#C0_0_646eedd22c" y="251.311872"/>
    </g>
    <g clip-path="url(#pac0d70b1f1)">
     <use style="fill:#fde725;stroke:#fde725;" x="89.895327" xlink:href="#C0_0_646eedd22c" y="217.934651"/>
    </g>
    <g clip-path="url(#pac0d70b1f1)">
     <use style="fill:#fde725;stroke:#fde725;" x="77.972191" xlink:href="#C0_0_646eedd22c" y="169.856947"/>
    </g>
    <g clip-path="url(#pac0d70b1f1)">
     <use style="fill:#fde725;stroke:#fde725;" x="65.803889" xlink:href="#C0_0_646eedd22c" y="235.794568"/>
    </g>
    <g clip-path="url(#pac0d70b1f1)">
     <use style="fill:#fde725;stroke:#fde725;" x="131.208623" xlink:href="#C0_0_646eedd22c" y="239.954231"/>
    </g>
    <g clip-path="url(#pac0d70b1f1)">
     <use style="fill:#fde725;stroke:#fde725;" x="100.015337" xlink:href="#C0_0_646eedd22c" y="225.580375"/>
    </g>
    <g clip-path="url(#pac0d70b1f1)">
     <use style="fill:#fde725;stroke:#fde725;" x="60.053081" xlink:href="#C0_0_646eedd22c" y="227.953747"/>
    </g>
    <g clip-path="url(#pac0d70b1f1)">
     <use style="fill:#fde725;stroke:#fde725;" x="95.423055" xlink:href="#C0_0_646eedd22c" y="279.388991"/>
    </g>
    <g clip-path="url(#pac0d70b1f1)">
     <use style="fill:#fde725;stroke:#fde725;" x="95.841797" xlink:href="#C0_0_646eedd22c" y="231.187422"/>
    </g>
    <g clip-path="url(#pac0d70b1f1)">
     <use style="fill:#fde725;stroke:#fde725;" x="85.079864" xlink:href="#C0_0_646eedd22c" y="234.981213"/>
    </g>
    <g clip-path="url(#pac0d70b1f1)">
     <use style="fill:#fde725;stroke:#fde725;" x="62.304582" xlink:href="#C0_0_646eedd22c" y="216.385665"/>
    </g>
    <g clip-path="url(#pac0d70b1f1)">
     <use style="fill:#fde725;stroke:#fde725;" x="88.599761" xlink:href="#C0_0_646eedd22c" y="237.000498"/>
    </g>
    <g clip-path="url(#pac0d70b1f1)">
     <use style="fill:#fde725;stroke:#fde725;" x="83.971946" xlink:href="#C0_0_646eedd22c" y="268.421377"/>
    </g>
    <g clip-path="url(#pac0d70b1f1)">
     <use style="fill:#fde725;stroke:#fde725;" x="60.186538" xlink:href="#C0_0_646eedd22c" y="239.607469"/>
    </g>
    <g clip-path="url(#pac0d70b1f1)">
     <use style="fill:#fde725;stroke:#fde725;" x="192.066765" xlink:href="#C0_0_646eedd22c" y="304.288989"/>
    </g>
    <g clip-path="url(#pac0d70b1f1)">
     <use style="fill:#fde725;stroke:#fde725;" x="81.198676" xlink:href="#C0_0_646eedd22c" y="251.054789"/>
    </g>
    <g clip-path="url(#pac0d70b1f1)">
     <use style="fill:#fde725;stroke:#fde725;" x="126.911127" xlink:href="#C0_0_646eedd22c" y="262.950007"/>
    </g>
    <g clip-path="url(#pac0d70b1f1)">
     <use style="fill:#fde725;stroke:#fde725;" x="57.681818" xlink:href="#C0_0_646eedd22c" y="204.56232"/>
    </g>
    <g clip-path="url(#pac0d70b1f1)">
     <use style="fill:#fde725;stroke:#fde725;" x="184.6263" xlink:href="#C0_0_646eedd22c" y="134.109246"/>
    </g>
    <g clip-path="url(#pac0d70b1f1)">
     <use style="fill:#fde725;stroke:#fde725;" x="65.114541" xlink:href="#C0_0_646eedd22c" y="214.053555"/>
    </g>
    <g clip-path="url(#pac0d70b1f1)">
     <use style="fill:#fde725;stroke:#fde725;" x="75.257289" xlink:href="#C0_0_646eedd22c" y="252.739007"/>
    </g>
    <g clip-path="url(#pac0d70b1f1)">
     <use style="fill:#fde725;stroke:#fde725;" x="71.294939" xlink:href="#C0_0_646eedd22c" y="248.14116"/>
    </g>
    <g clip-path="url(#pac0d70b1f1)">
     <use style="fill:#fde725;stroke:#fde725;" x="229.923911" xlink:href="#C0_0_646eedd22c" y="307.8"/>
    </g>
   </g>
   <g id="matplotlib.axis_1">
    <g id="xtick_1">
     <g id="line2d_1">
      <defs>
       <path d="M 0 0 
L 0 3.5 
" id="mb4cd4f0fc5" style="stroke:#000000;stroke-width:0.8;"/>
      </defs>
      <g>
       <use style="stroke:#000000;stroke-width:0.8;" x="68.999242" xlink:href="#mb4cd4f0fc5" y="320.4"/>
      </g>
     </g>
     <g id="text_1">
      <!-- −5 -->
      <defs>
       <path d="M 10.59375 35.5 
L 73.1875 35.5 
L 73.1875 27.203125 
L 10.59375 27.203125 
z
" id="DejaVuSans-8722"/>
       <path d="M 10.796875 72.90625 
L 49.515625 72.90625 
L 49.515625 64.59375 
L 19.828125 64.59375 
L 19.828125 46.734375 
Q 21.96875 47.46875 24.109375 47.828125 
Q 26.265625 48.1875 28.421875 48.1875 
Q 40.625 48.1875 47.75 41.5 
Q 54.890625 34.8125 54.890625 23.390625 
Q 54.890625 11.625 47.5625 5.09375 
Q 40.234375 -1.421875 26.90625 -1.421875 
Q 22.3125 -1.421875 17.546875 -0.640625 
Q 12.796875 0.140625 7.71875 1.703125 
L 7.71875 11.625 
Q 12.109375 9.234375 16.796875 8.0625 
Q 21.484375 6.890625 26.703125 6.890625 
Q 35.15625 6.890625 40.078125 11.328125 
Q 45.015625 15.765625 45.015625 23.390625 
Q 45.015625 31 40.078125 35.4375 
Q 35.15625 39.890625 26.703125 39.890625 
Q 22.75 39.890625 18.8125 39.015625 
Q 14.890625 38.140625 10.796875 36.28125 
z
" id="DejaVuSans-53"/>
      </defs>
      <g transform="translate(61.628148 334.998438)scale(0.1 -0.1)">
       <use xlink:href="#DejaVuSans-8722"/>
       <use x="83.789062" xlink:href="#DejaVuSans-53"/>
      </g>
     </g>
    </g>
    <g id="xtick_2">
     <g id="line2d_2">
      <g>
       <use style="stroke:#000000;stroke-width:0.8;" x="103.664859" xlink:href="#mb4cd4f0fc5" y="320.4"/>
      </g>
     </g>
     <g id="text_2">
      <!-- 0 -->
      <defs>
       <path d="M 31.78125 66.40625 
Q 24.171875 66.40625 20.328125 58.90625 
Q 16.5 51.421875 16.5 36.375 
Q 16.5 21.390625 20.328125 13.890625 
Q 24.171875 6.390625 31.78125 6.390625 
Q 39.453125 6.390625 43.28125 13.890625 
Q 47.125 21.390625 47.125 36.375 
Q 47.125 51.421875 43.28125 58.90625 
Q 39.453125 66.40625 31.78125 66.40625 
z
M 31.78125 74.21875 
Q 44.046875 74.21875 50.515625 64.515625 
Q 56.984375 54.828125 56.984375 36.375 
Q 56.984375 17.96875 50.515625 8.265625 
Q 44.046875 -1.421875 31.78125 -1.421875 
Q 19.53125 -1.421875 13.0625 8.265625 
Q 6.59375 17.96875 6.59375 36.375 
Q 6.59375 54.828125 13.0625 64.515625 
Q 19.53125 74.21875 31.78125 74.21875 
z
" id="DejaVuSans-48"/>
      </defs>
      <g transform="translate(100.483609 334.998438)scale(0.1 -0.1)">
       <use xlink:href="#DejaVuSans-48"/>
      </g>
     </g>
    </g>
    <g id="xtick_3">
     <g id="line2d_3">
      <g>
       <use style="stroke:#000000;stroke-width:0.8;" x="138.330476" xlink:href="#mb4cd4f0fc5" y="320.4"/>
      </g>
     </g>
     <g id="text_3">
      <!-- 5 -->
      <g transform="translate(135.149226 334.998438)scale(0.1 -0.1)">
       <use xlink:href="#DejaVuSans-53"/>
      </g>
     </g>
    </g>
    <g id="xtick_4">
     <g id="line2d_4">
      <g>
       <use style="stroke:#000000;stroke-width:0.8;" x="172.996094" xlink:href="#mb4cd4f0fc5" y="320.4"/>
      </g>
     </g>
     <g id="text_4">
      <!-- 10 -->
      <defs>
       <path d="M 12.40625 8.296875 
L 28.515625 8.296875 
L 28.515625 63.921875 
L 10.984375 60.40625 
L 10.984375 69.390625 
L 28.421875 72.90625 
L 38.28125 72.90625 
L 38.28125 8.296875 
L 54.390625 8.296875 
L 54.390625 0 
L 12.40625 0 
z
" id="DejaVuSans-49"/>
      </defs>
      <g transform="translate(166.633594 334.998438)scale(0.1 -0.1)">
       <use xlink:href="#DejaVuSans-49"/>
       <use x="63.623047" xlink:href="#DejaVuSans-48"/>
      </g>
     </g>
    </g>
    <g id="xtick_5">
     <g id="line2d_5">
      <g>
       <use style="stroke:#000000;stroke-width:0.8;" x="207.661711" xlink:href="#mb4cd4f0fc5" y="320.4"/>
      </g>
     </g>
     <g id="text_5">
      <!-- 15 -->
      <g transform="translate(201.299211 334.998438)scale(0.1 -0.1)">
       <use xlink:href="#DejaVuSans-49"/>
       <use x="63.623047" xlink:href="#DejaVuSans-53"/>
      </g>
     </g>
    </g>
    <g id="xtick_6">
     <g id="line2d_6">
      <g>
       <use style="stroke:#000000;stroke-width:0.8;" x="242.327328" xlink:href="#mb4cd4f0fc5" y="320.4"/>
      </g>
     </g>
     <g id="text_6">
      <!-- 20 -->
      <defs>
       <path d="M 19.1875 8.296875 
L 53.609375 8.296875 
L 53.609375 0 
L 7.328125 0 
L 7.328125 8.296875 
Q 12.9375 14.109375 22.625 23.890625 
Q 32.328125 33.6875 34.8125 36.53125 
Q 39.546875 41.84375 41.421875 45.53125 
Q 43.3125 49.21875 43.3125 52.78125 
Q 43.3125 58.59375 39.234375 62.25 
Q 35.15625 65.921875 28.609375 65.921875 
Q 23.96875 65.921875 18.8125 64.3125 
Q 13.671875 62.703125 7.8125 59.421875 
L 7.8125 69.390625 
Q 13.765625 71.78125 18.9375 73 
Q 24.125 74.21875 28.421875 74.21875 
Q 39.75 74.21875 46.484375 68.546875 
Q 53.21875 62.890625 53.21875 53.421875 
Q 53.21875 48.921875 51.53125 44.890625 
Q 49.859375 40.875 45.40625 35.40625 
Q 44.1875 33.984375 37.640625 27.21875 
Q 31.109375 20.453125 19.1875 8.296875 
z
" id="DejaVuSans-50"/>
      </defs>
      <g transform="translate(235.964828 334.998438)scale(0.1 -0.1)">
       <use xlink:href="#DejaVuSans-50"/>
       <use x="63.623047" xlink:href="#DejaVuSans-48"/>
      </g>
     </g>
    </g>
    <g id="xtick_7">
     <g id="line2d_7">
      <g>
       <use style="stroke:#000000;stroke-width:0.8;" x="276.992945" xlink:href="#mb4cd4f0fc5" y="320.4"/>
      </g>
     </g>
     <g id="text_7">
      <!-- 25 -->
      <g transform="translate(270.630445 334.998438)scale(0.1 -0.1)">
       <use xlink:href="#DejaVuSans-50"/>
       <use x="63.623047" xlink:href="#DejaVuSans-53"/>
      </g>
     </g>
    </g>
    <g id="xtick_8">
     <g id="line2d_8">
      <g>
       <use style="stroke:#000000;stroke-width:0.8;" x="311.658562" xlink:href="#mb4cd4f0fc5" y="320.4"/>
      </g>
     </g>
     <g id="text_8">
      <!-- 30 -->
      <defs>
       <path d="M 40.578125 39.3125 
Q 47.65625 37.796875 51.625 33 
Q 55.609375 28.21875 55.609375 21.1875 
Q 55.609375 10.40625 48.1875 4.484375 
Q 40.765625 -1.421875 27.09375 -1.421875 
Q 22.515625 -1.421875 17.65625 -0.515625 
Q 12.796875 0.390625 7.625 2.203125 
L 7.625 11.71875 
Q 11.71875 9.328125 16.59375 8.109375 
Q 21.484375 6.890625 26.8125 6.890625 
Q 36.078125 6.890625 40.9375 10.546875 
Q 45.796875 14.203125 45.796875 21.1875 
Q 45.796875 27.640625 41.28125 31.265625 
Q 36.765625 34.90625 28.71875 34.90625 
L 20.21875 34.90625 
L 20.21875 43.015625 
L 29.109375 43.015625 
Q 36.375 43.015625 40.234375 45.921875 
Q 44.09375 48.828125 44.09375 54.296875 
Q 44.09375 59.90625 40.109375 62.90625 
Q 36.140625 65.921875 28.71875 65.921875 
Q 24.65625 65.921875 20.015625 65.03125 
Q 15.375 64.15625 9.8125 62.3125 
L 9.8125 71.09375 
Q 15.4375 72.65625 20.34375 73.4375 
Q 25.25 74.21875 29.59375 74.21875 
Q 40.828125 74.21875 47.359375 69.109375 
Q 53.90625 64.015625 53.90625 55.328125 
Q 53.90625 49.265625 50.4375 45.09375 
Q 46.96875 40.921875 40.578125 39.3125 
z
" id="DejaVuSans-51"/>
      </defs>
      <g transform="translate(305.296062 334.998438)scale(0.1 -0.1)">
       <use xlink:href="#DejaVuSans-51"/>
       <use x="63.623047" xlink:href="#DejaVuSans-48"/>
      </g>
     </g>
    </g>
   </g>
   <g id="matplotlib.axis_2">
    <g id="ytick_1">
     <g id="line2d_9">
      <defs>
       <path d="M 0 0 
L -3.5 0 
" id="m3fa159eafd" style="stroke:#000000;stroke-width:0.8;"/>
      </defs>
      <g>
       <use style="stroke:#000000;stroke-width:0.8;" x="45" xlink:href="#m3fa159eafd" y="295.929473"/>
      </g>
     </g>
     <g id="text_9">
      <!-- −3 -->
      <g transform="translate(23.257812 299.728692)scale(0.1 -0.1)">
       <use xlink:href="#DejaVuSans-8722"/>
       <use x="83.789062" xlink:href="#DejaVuSans-51"/>
      </g>
     </g>
    </g>
    <g id="ytick_2">
     <g id="line2d_10">
      <g>
       <use style="stroke:#000000;stroke-width:0.8;" x="45" xlink:href="#m3fa159eafd" y="263.838377"/>
      </g>
     </g>
     <g id="text_10">
      <!-- −2 -->
      <g transform="translate(23.257812 267.637595)scale(0.1 -0.1)">
       <use xlink:href="#DejaVuSans-8722"/>
       <use x="83.789062" xlink:href="#DejaVuSans-50"/>
      </g>
     </g>
    </g>
    <g id="ytick_3">
     <g id="line2d_11">
      <g>
       <use style="stroke:#000000;stroke-width:0.8;" x="45" xlink:href="#m3fa159eafd" y="231.74728"/>
      </g>
     </g>
     <g id="text_11">
      <!-- −1 -->
      <g transform="translate(23.257812 235.546499)scale(0.1 -0.1)">
       <use xlink:href="#DejaVuSans-8722"/>
       <use x="83.789062" xlink:href="#DejaVuSans-49"/>
      </g>
     </g>
    </g>
    <g id="ytick_4">
     <g id="line2d_12">
      <g>
       <use style="stroke:#000000;stroke-width:0.8;" x="45" xlink:href="#m3fa159eafd" y="199.656183"/>
      </g>
     </g>
     <g id="text_12">
      <!-- 0 -->
      <g transform="translate(31.6375 203.455402)scale(0.1 -0.1)">
       <use xlink:href="#DejaVuSans-48"/>
      </g>
     </g>
    </g>
    <g id="ytick_5">
     <g id="line2d_13">
      <g>
       <use style="stroke:#000000;stroke-width:0.8;" x="45" xlink:href="#m3fa159eafd" y="167.565086"/>
      </g>
     </g>
     <g id="text_13">
      <!-- 1 -->
      <g transform="translate(31.6375 171.364305)scale(0.1 -0.1)">
       <use xlink:href="#DejaVuSans-49"/>
      </g>
     </g>
    </g>
    <g id="ytick_6">
     <g id="line2d_14">
      <g>
       <use style="stroke:#000000;stroke-width:0.8;" x="45" xlink:href="#m3fa159eafd" y="135.47399"/>
      </g>
     </g>
     <g id="text_14">
      <!-- 2 -->
      <g transform="translate(31.6375 139.273208)scale(0.1 -0.1)">
       <use xlink:href="#DejaVuSans-50"/>
      </g>
     </g>
    </g>
    <g id="ytick_7">
     <g id="line2d_15">
      <g>
       <use style="stroke:#000000;stroke-width:0.8;" x="45" xlink:href="#m3fa159eafd" y="103.382893"/>
      </g>
     </g>
     <g id="text_15">
      <!-- 3 -->
      <g transform="translate(31.6375 107.182112)scale(0.1 -0.1)">
       <use xlink:href="#DejaVuSans-51"/>
      </g>
     </g>
    </g>
    <g id="ytick_8">
     <g id="line2d_16">
      <g>
       <use style="stroke:#000000;stroke-width:0.8;" x="45" xlink:href="#m3fa159eafd" y="71.291796"/>
      </g>
     </g>
     <g id="text_16">
      <!-- 4 -->
      <defs>
       <path d="M 37.796875 64.3125 
L 12.890625 25.390625 
L 37.796875 25.390625 
z
M 35.203125 72.90625 
L 47.609375 72.90625 
L 47.609375 25.390625 
L 58.015625 25.390625 
L 58.015625 17.1875 
L 47.609375 17.1875 
L 47.609375 0 
L 37.796875 0 
L 37.796875 17.1875 
L 4.890625 17.1875 
L 4.890625 26.703125 
z
" id="DejaVuSans-52"/>
      </defs>
      <g transform="translate(31.6375 75.091015)scale(0.1 -0.1)">
       <use xlink:href="#DejaVuSans-52"/>
      </g>
     </g>
    </g>
   </g>
   <g id="patch_3">
    <path d="M 45 320.4 
L 45 43.2 
" style="fill:none;stroke:#000000;stroke-linecap:square;stroke-linejoin:miter;stroke-width:0.8;"/>
   </g>
   <g id="patch_4">
    <path d="M 324 320.4 
L 324 43.2 
" style="fill:none;stroke:#000000;stroke-linecap:square;stroke-linejoin:miter;stroke-width:0.8;"/>
   </g>
   <g id="patch_5">
    <path d="M 45 320.4 
L 324 320.4 
" style="fill:none;stroke:#000000;stroke-linecap:square;stroke-linejoin:miter;stroke-width:0.8;"/>
   </g>
   <g id="patch_6">
    <path d="M 45 43.2 
L 324 43.2 
" style="fill:none;stroke:#000000;stroke-linecap:square;stroke-linejoin:miter;stroke-width:0.8;"/>
   </g>
  </g>
 </g>
 <defs>
  <clipPath id="pac0d70b1f1">
   <rect height="277.2" width="279" x="45" y="43.2"/>
  </clipPath>
 </defs>
</svg>
