<?xml version="1.0" encoding="utf-8" standalone="no"?>
<!DOCTYPE svg PUBLIC "-//W3C//DTD SVG 1.1//EN"
  "http://www.w3.org/Graphics/SVG/1.1/DTD/svg11.dtd">
<!-- Created with matplotlib (https://matplotlib.org/) -->
<svg height="360pt" version="1.1" viewBox="0 0 360 360" width="360pt" xmlns="http://www.w3.org/2000/svg" xmlns:xlink="http://www.w3.org/1999/xlink">
 <defs>
  <style type="text/css">
*{stroke-linecap:butt;stroke-linejoin:round;}
  </style>
 </defs>
 <g id="figure_1">
  <g id="patch_1">
   <path d="M 0 360 
L 360 360 
L 360 0 
L 0 0 
z
" style="fill:#ffffff;"/>
  </g>
  <g id="axes_1">
   <g id="patch_2">
    <path d="M 45 320.4 
L 324 320.4 
L 324 43.2 
L 45 43.2 
z
" style="fill:#ffffff;"/>
   </g>
   <g id="PathCollection_1">
    <defs>
     <path d="M 0 3 
C 0.795609 3 1.55874 2.683901 2.12132 2.12132 
C 2.683901 1.55874 3 0.795609 3 0 
C 3 -0.795609 2.683901 -1.55874 2.12132 -2.12132 
C 1.55874 -2.683901 0.795609 -3 0 -3 
C -0.795609 -3 -1.55874 -2.683901 -2.12132 -2.12132 
C -2.683901 -1.55874 -3 -0.795609 -3 0 
C -3 0.795609 -2.683901 1.55874 -2.12132 2.12132 
C -1.55874 2.683901 -0.795609 3 0 3 
z
" id="C0_0_6a36443bca"/>
    </defs>
    <g clip-path="url(#pfc87226f0c)">
     <use style="fill:#440154;stroke:#440154;" x="57.759758" xlink:href="#C0_0_6a36443bca" y="153.123599"/>
    </g>
    <g clip-path="url(#pfc87226f0c)">
     <use style="fill:#440154;stroke:#440154;" x="70.289424" xlink:href="#C0_0_6a36443bca" y="219.20884"/>
    </g>
    <g clip-path="url(#pfc87226f0c)">
     <use style="fill:#440154;stroke:#440154;" x="96.821936" xlink:href="#C0_0_6a36443bca" y="282.86369"/>
    </g>
    <g clip-path="url(#pfc87226f0c)">
     <use style="fill:#440154;stroke:#440154;" x="63.452899" xlink:href="#C0_0_6a36443bca" y="197.883788"/>
    </g>
    <g clip-path="url(#pfc87226f0c)">
     <use style="fill:#440154;stroke:#440154;" x="75.977114" xlink:href="#C0_0_6a36443bca" y="248.346423"/>
    </g>
    <g clip-path="url(#pfc87226f0c)">
     <use style="fill:#440154;stroke:#440154;" x="79.266939" xlink:href="#C0_0_6a36443bca" y="225.413004"/>
    </g>
    <g clip-path="url(#pfc87226f0c)">
     <use style="fill:#440154;stroke:#440154;" x="92.760885" xlink:href="#C0_0_6a36443bca" y="273.925115"/>
    </g>
    <g clip-path="url(#pfc87226f0c)">
     <use style="fill:#440154;stroke:#440154;" x="121.037367" xlink:href="#C0_0_6a36443bca" y="304.076129"/>
    </g>
    <g clip-path="url(#pfc87226f0c)">
     <use style="fill:#440154;stroke:#440154;" x="59.21706" xlink:href="#C0_0_6a36443bca" y="55.8"/>
    </g>
    <g clip-path="url(#pfc87226f0c)">
     <use style="fill:#440154;stroke:#440154;" x="110.712855" xlink:href="#C0_0_6a36443bca" y="296.263575"/>
    </g>
    <g clip-path="url(#pfc87226f0c)">
     <use style="fill:#440154;stroke:#440154;" x="64.615917" xlink:href="#C0_0_6a36443bca" y="186.58533"/>
    </g>
    <g clip-path="url(#pfc87226f0c)">
     <use style="fill:#440154;stroke:#440154;" x="231.004448" xlink:href="#C0_0_6a36443bca" y="233.673467"/>
    </g>
    <g clip-path="url(#pfc87226f0c)">
     <use style="fill:#440154;stroke:#440154;" x="75.658805" xlink:href="#C0_0_6a36443bca" y="230.710157"/>
    </g>
    <g clip-path="url(#pfc87226f0c)">
     <use style="fill:#440154;stroke:#440154;" x="83.590765" xlink:href="#C0_0_6a36443bca" y="247.49829"/>
    </g>
    <g clip-path="url(#pfc87226f0c)">
     <use style="fill:#440154;stroke:#440154;" x="101.995164" xlink:href="#C0_0_6a36443bca" y="292.571664"/>
    </g>
    <g clip-path="url(#pfc87226f0c)">
     <use style="fill:#440154;stroke:#440154;" x="146.848185" xlink:href="#C0_0_6a36443bca" y="301.800996"/>
    </g>
    <g clip-path="url(#pfc87226f0c)">
     <use style="fill:#440154;stroke:#440154;" x="61.613644" xlink:href="#C0_0_6a36443bca" y="184.038831"/>
    </g>
    <g clip-path="url(#pfc87226f0c)">
     <use style="fill:#440154;stroke:#440154;" x="71.768288" xlink:href="#C0_0_6a36443bca" y="229.848357"/>
    </g>
    <g clip-path="url(#pfc87226f0c)">
     <use style="fill:#440154;stroke:#440154;" x="104.83402" xlink:href="#C0_0_6a36443bca" y="291.419681"/>
    </g>
    <g clip-path="url(#pfc87226f0c)">
     <use style="fill:#440154;stroke:#440154;" x="103.394275" xlink:href="#C0_0_6a36443bca" y="293.886147"/>
    </g>
    <g clip-path="url(#pfc87226f0c)">
     <use style="fill:#440154;stroke:#440154;" x="61.534989" xlink:href="#C0_0_6a36443bca" y="102.622522"/>
    </g>
    <g clip-path="url(#pfc87226f0c)">
     <use style="fill:#440154;stroke:#440154;" x="128.919946" xlink:href="#C0_0_6a36443bca" y="305.253721"/>
    </g>
    <g clip-path="url(#pfc87226f0c)">
     <use style="fill:#440154;stroke:#440154;" x="92.04058" xlink:href="#C0_0_6a36443bca" y="265.307654"/>
    </g>
    <g clip-path="url(#pfc87226f0c)">
     <use style="fill:#440154;stroke:#440154;" x="58.502342" xlink:href="#C0_0_6a36443bca" y="146.867763"/>
    </g>
    <g clip-path="url(#pfc87226f0c)">
     <use style="fill:#440154;stroke:#440154;" x="98.278863" xlink:href="#C0_0_6a36443bca" y="284.466697"/>
    </g>
    <g clip-path="url(#pfc87226f0c)">
     <use style="fill:#440154;stroke:#440154;" x="237.609991" xlink:href="#C0_0_6a36443bca" y="228.839033"/>
    </g>
    <g clip-path="url(#pfc87226f0c)">
     <use style="fill:#440154;stroke:#440154;" x="108.473074" xlink:href="#C0_0_6a36443bca" y="276.98875"/>
    </g>
    <g clip-path="url(#pfc87226f0c)">
     <use style="fill:#440154;stroke:#440154;" x="99.742315" xlink:href="#C0_0_6a36443bca" y="286.485868"/>
    </g>
    <g clip-path="url(#pfc87226f0c)">
     <use style="fill:#440154;stroke:#440154;" x="109.029893" xlink:href="#C0_0_6a36443bca" y="290.823411"/>
    </g>
    <g clip-path="url(#pfc87226f0c)">
     <use style="fill:#440154;stroke:#440154;" x="87.499208" xlink:href="#C0_0_6a36443bca" y="267.796177"/>
    </g>
    <g clip-path="url(#pfc87226f0c)">
     <use style="fill:#440154;stroke:#440154;" x="120.938189" xlink:href="#C0_0_6a36443bca" y="303.937177"/>
    </g>
    <g clip-path="url(#pfc87226f0c)">
     <use style="fill:#440154;stroke:#440154;" x="140.699392" xlink:href="#C0_0_6a36443bca" y="303.376342"/>
    </g>
    <g clip-path="url(#pfc87226f0c)">
     <use style="fill:#440154;stroke:#440154;" x="63.28439" xlink:href="#C0_0_6a36443bca" y="185.580364"/>
    </g>
    <g clip-path="url(#pfc87226f0c)">
     <use style="fill:#440154;stroke:#440154;" x="210.725779" xlink:href="#C0_0_6a36443bca" y="270.616084"/>
    </g>
    <g clip-path="url(#pfc87226f0c)">
     <use style="fill:#440154;stroke:#440154;" x="149.304985" xlink:href="#C0_0_6a36443bca" y="303.79398"/>
    </g>
    <g clip-path="url(#pfc87226f0c)">
     <use style="fill:#440154;stroke:#440154;" x="139.908192" xlink:href="#C0_0_6a36443bca" y="306.591042"/>
    </g>
    <g clip-path="url(#pfc87226f0c)">
     <use style="fill:#440154;stroke:#440154;" x="85.968618" xlink:href="#C0_0_6a36443bca" y="270.721717"/>
    </g>
    <g clip-path="url(#pfc87226f0c)">
     <use style="fill:#440154;stroke:#440154;" x="166.212136" xlink:href="#C0_0_6a36443bca" y="300.551415"/>
    </g>
    <g clip-path="url(#pfc87226f0c)">
     <use style="fill:#440154;stroke:#440154;" x="292.281188" xlink:href="#C0_0_6a36443bca" y="187.90345"/>
    </g>
    <g clip-path="url(#pfc87226f0c)">
     <use style="fill:#440154;stroke:#440154;" x="95.157874" xlink:href="#C0_0_6a36443bca" y="281.475827"/>
    </g>
    <g clip-path="url(#pfc87226f0c)">
     <use style="fill:#440154;stroke:#440154;" x="194.877637" xlink:href="#C0_0_6a36443bca" y="276.561009"/>
    </g>
    <g clip-path="url(#pfc87226f0c)">
     <use style="fill:#440154;stroke:#440154;" x="102.538905" xlink:href="#C0_0_6a36443bca" y="290.207486"/>
    </g>
    <g clip-path="url(#pfc87226f0c)">
     <use style="fill:#440154;stroke:#440154;" x="105.685284" xlink:href="#C0_0_6a36443bca" y="294.985352"/>
    </g>
    <g clip-path="url(#pfc87226f0c)">
     <use style="fill:#440154;stroke:#440154;" x="73.699574" xlink:href="#C0_0_6a36443bca" y="238.623297"/>
    </g>
    <g clip-path="url(#pfc87226f0c)">
     <use style="fill:#440154;stroke:#440154;" x="110.813724" xlink:href="#C0_0_6a36443bca" y="297.080059"/>
    </g>
    <g clip-path="url(#pfc87226f0c)">
     <use style="fill:#440154;stroke:#440154;" x="300.817786" xlink:href="#C0_0_6a36443bca" y="157.809374"/>
    </g>
    <g clip-path="url(#pfc87226f0c)">
     <use style="fill:#440154;stroke:#440154;" x="64.019014" xlink:href="#C0_0_6a36443bca" y="205.492496"/>
    </g>
    <g clip-path="url(#pfc87226f0c)">
     <use style="fill:#440154;stroke:#440154;" x="125.492128" xlink:href="#C0_0_6a36443bca" y="303.113332"/>
    </g>
    <g clip-path="url(#pfc87226f0c)">
     <use style="fill:#440154;stroke:#440154;" x="62.663621" xlink:href="#C0_0_6a36443bca" y="197.303543"/>
    </g>
    <g clip-path="url(#pfc87226f0c)">
     <use style="fill:#440154;stroke:#440154;" x="182.025661" xlink:href="#C0_0_6a36443bca" y="284.376391"/>
    </g>
    <g clip-path="url(#pfc87226f0c)">
     <use style="fill:#440154;stroke:#440154;" x="74.482548" xlink:href="#C0_0_6a36443bca" y="246.834521"/>
    </g>
    <g clip-path="url(#pfc87226f0c)">
     <use style="fill:#440154;stroke:#440154;" x="90.314253" xlink:href="#C0_0_6a36443bca" y="269.623724"/>
    </g>
    <g clip-path="url(#pfc87226f0c)">
     <use style="fill:#440154;stroke:#440154;" x="81.431035" xlink:href="#C0_0_6a36443bca" y="261.429532"/>
    </g>
    <g clip-path="url(#pfc87226f0c)">
     <use style="fill:#440154;stroke:#440154;" x="89.075566" xlink:href="#C0_0_6a36443bca" y="277.192801"/>
    </g>
    <g clip-path="url(#pfc87226f0c)">
     <use style="fill:#440154;stroke:#440154;" x="135.421727" xlink:href="#C0_0_6a36443bca" y="303.922318"/>
    </g>
    <g clip-path="url(#pfc87226f0c)">
     <use style="fill:#440154;stroke:#440154;" x="73.1393" xlink:href="#C0_0_6a36443bca" y="204.023835"/>
    </g>
    <g clip-path="url(#pfc87226f0c)">
     <use style="fill:#440154;stroke:#440154;" x="70.430972" xlink:href="#C0_0_6a36443bca" y="234.976063"/>
    </g>
    <g clip-path="url(#pfc87226f0c)">
     <use style="fill:#440154;stroke:#440154;" x="122.788835" xlink:href="#C0_0_6a36443bca" y="305.077718"/>
    </g>
    <g clip-path="url(#pfc87226f0c)">
     <use style="fill:#440154;stroke:#440154;" x="80.551323" xlink:href="#C0_0_6a36443bca" y="260.950882"/>
    </g>
    <g clip-path="url(#pfc87226f0c)">
     <use style="fill:#440154;stroke:#440154;" x="134.701189" xlink:href="#C0_0_6a36443bca" y="307.444811"/>
    </g>
    <g clip-path="url(#pfc87226f0c)">
     <use style="fill:#440154;stroke:#440154;" x="119.970831" xlink:href="#C0_0_6a36443bca" y="295.326034"/>
    </g>
    <g clip-path="url(#pfc87226f0c)">
     <use style="fill:#440154;stroke:#440154;" x="87.113242" xlink:href="#C0_0_6a36443bca" y="267.24189"/>
    </g>
    <g clip-path="url(#pfc87226f0c)">
     <use style="fill:#440154;stroke:#440154;" x="98.364218" xlink:href="#C0_0_6a36443bca" y="285.40569"/>
    </g>
    <g clip-path="url(#pfc87226f0c)">
     <use style="fill:#440154;stroke:#440154;" x="129.490302" xlink:href="#C0_0_6a36443bca" y="304.832078"/>
    </g>
    <g clip-path="url(#pfc87226f0c)">
     <use style="fill:#440154;stroke:#440154;" x="118.766159" xlink:href="#C0_0_6a36443bca" y="301.556822"/>
    </g>
    <g clip-path="url(#pfc87226f0c)">
     <use style="fill:#440154;stroke:#440154;" x="90.224349" xlink:href="#C0_0_6a36443bca" y="274.960758"/>
    </g>
    <g clip-path="url(#pfc87226f0c)">
     <use style="fill:#440154;stroke:#440154;" x="92.407153" xlink:href="#C0_0_6a36443bca" y="278.472896"/>
    </g>
    <g clip-path="url(#pfc87226f0c)">
     <use style="fill:#440154;stroke:#440154;" x="194.860844" xlink:href="#C0_0_6a36443bca" y="286.594388"/>
    </g>
    <g clip-path="url(#pfc87226f0c)">
     <use style="fill:#440154;stroke:#440154;" x="98.209241" xlink:href="#C0_0_6a36443bca" y="284.948525"/>
    </g>
    <g clip-path="url(#pfc87226f0c)">
     <use style="fill:#440154;stroke:#440154;" x="231.265018" xlink:href="#C0_0_6a36443bca" y="258.802018"/>
    </g>
    <g clip-path="url(#pfc87226f0c)">
     <use style="fill:#440154;stroke:#440154;" x="69.176438" xlink:href="#C0_0_6a36443bca" y="205.312176"/>
    </g>
    <g clip-path="url(#pfc87226f0c)">
     <use style="fill:#440154;stroke:#440154;" x="114.522491" xlink:href="#C0_0_6a36443bca" y="297.817589"/>
    </g>
    <g clip-path="url(#pfc87226f0c)">
     <use style="fill:#440154;stroke:#440154;" x="110.523267" xlink:href="#C0_0_6a36443bca" y="296.149737"/>
    </g>
    <g clip-path="url(#pfc87226f0c)">
     <use style="fill:#440154;stroke:#440154;" x="88.82708" xlink:href="#C0_0_6a36443bca" y="275.853862"/>
    </g>
    <g clip-path="url(#pfc87226f0c)">
     <use style="fill:#440154;stroke:#440154;" x="80.847463" xlink:href="#C0_0_6a36443bca" y="260.813388"/>
    </g>
    <g clip-path="url(#pfc87226f0c)">
     <use style="fill:#440154;stroke:#440154;" x="241.465017" xlink:href="#C0_0_6a36443bca" y="243.35853"/>
    </g>
    <g clip-path="url(#pfc87226f0c)">
     <use style="fill:#440154;stroke:#440154;" x="204.227801" xlink:href="#C0_0_6a36443bca" y="276.379561"/>
    </g>
    <g clip-path="url(#pfc87226f0c)">
     <use style="fill:#440154;stroke:#440154;" x="120.252068" xlink:href="#C0_0_6a36443bca" y="294.906453"/>
    </g>
    <g clip-path="url(#pfc87226f0c)">
     <use style="fill:#440154;stroke:#440154;" x="201.240751" xlink:href="#C0_0_6a36443bca" y="281.086084"/>
    </g>
    <g clip-path="url(#pfc87226f0c)">
     <use style="fill:#440154;stroke:#440154;" x="100.590972" xlink:href="#C0_0_6a36443bca" y="284.595174"/>
    </g>
    <g clip-path="url(#pfc87226f0c)">
     <use style="fill:#440154;stroke:#440154;" x="131.545085" xlink:href="#C0_0_6a36443bca" y="307.154566"/>
    </g>
    <g clip-path="url(#pfc87226f0c)">
     <use style="fill:#440154;stroke:#440154;" x="87.859395" xlink:href="#C0_0_6a36443bca" y="266.009528"/>
    </g>
    <g clip-path="url(#pfc87226f0c)">
     <use style="fill:#440154;stroke:#440154;" x="117.557913" xlink:href="#C0_0_6a36443bca" y="299.607311"/>
    </g>
    <g clip-path="url(#pfc87226f0c)">
     <use style="fill:#440154;stroke:#440154;" x="81.64481" xlink:href="#C0_0_6a36443bca" y="261.418999"/>
    </g>
    <g clip-path="url(#pfc87226f0c)">
     <use style="fill:#440154;stroke:#440154;" x="109.085566" xlink:href="#C0_0_6a36443bca" y="292.592674"/>
    </g>
    <g clip-path="url(#pfc87226f0c)">
     <use style="fill:#440154;stroke:#440154;" x="104.845221" xlink:href="#C0_0_6a36443bca" y="294.51598"/>
    </g>
    <g clip-path="url(#pfc87226f0c)">
     <use style="fill:#440154;stroke:#440154;" x="83.581781" xlink:href="#C0_0_6a36443bca" y="268.395006"/>
    </g>
    <g clip-path="url(#pfc87226f0c)">
     <use style="fill:#440154;stroke:#440154;" x="92.566566" xlink:href="#C0_0_6a36443bca" y="277.074871"/>
    </g>
    <g clip-path="url(#pfc87226f0c)">
     <use style="fill:#440154;stroke:#440154;" x="90.551976" xlink:href="#C0_0_6a36443bca" y="278.121951"/>
    </g>
    <g clip-path="url(#pfc87226f0c)">
     <use style="fill:#440154;stroke:#440154;" x="104.007369" xlink:href="#C0_0_6a36443bca" y="291.758587"/>
    </g>
    <g clip-path="url(#pfc87226f0c)">
     <use style="fill:#440154;stroke:#440154;" x="118.103681" xlink:href="#C0_0_6a36443bca" y="301.929786"/>
    </g>
    <g clip-path="url(#pfc87226f0c)">
     <use style="fill:#440154;stroke:#440154;" x="127.094189" xlink:href="#C0_0_6a36443bca" y="278.809318"/>
    </g>
    <g clip-path="url(#pfc87226f0c)">
     <use style="fill:#440154;stroke:#440154;" x="126.499479" xlink:href="#C0_0_6a36443bca" y="306.382533"/>
    </g>
    <g clip-path="url(#pfc87226f0c)">
     <use style="fill:#440154;stroke:#440154;" x="165.96328" xlink:href="#C0_0_6a36443bca" y="299.220543"/>
    </g>
    <g clip-path="url(#pfc87226f0c)">
     <use style="fill:#440154;stroke:#440154;" x="128.444195" xlink:href="#C0_0_6a36443bca" y="306.93833"/>
    </g>
    <g clip-path="url(#pfc87226f0c)">
     <use style="fill:#440154;stroke:#440154;" x="99.65901" xlink:href="#C0_0_6a36443bca" y="283.316612"/>
    </g>
    <g clip-path="url(#pfc87226f0c)">
     <use style="fill:#440154;stroke:#440154;" x="79.141839" xlink:href="#C0_0_6a36443bca" y="231.594805"/>
    </g>
    <g clip-path="url(#pfc87226f0c)">
     <use style="fill:#440154;stroke:#440154;" x="136.122677" xlink:href="#C0_0_6a36443bca" y="302.736643"/>
    </g>
    <g clip-path="url(#pfc87226f0c)">
     <use style="fill:#440154;stroke:#440154;" x="111.901966" xlink:href="#C0_0_6a36443bca" y="295.325819"/>
    </g>
    <g clip-path="url(#pfc87226f0c)">
     <use style="fill:#440154;stroke:#440154;" x="67.050054" xlink:href="#C0_0_6a36443bca" y="193.719209"/>
    </g>
    <g clip-path="url(#pfc87226f0c)">
     <use style="fill:#440154;stroke:#440154;" x="57.681818" xlink:href="#C0_0_6a36443bca" y="122.018543"/>
    </g>
    <g clip-path="url(#pfc87226f0c)">
     <use style="fill:#440154;stroke:#440154;" x="77.492032" xlink:href="#C0_0_6a36443bca" y="177.595692"/>
    </g>
    <g clip-path="url(#pfc87226f0c)">
     <use style="fill:#440154;stroke:#440154;" x="110.497237" xlink:href="#C0_0_6a36443bca" y="280.010424"/>
    </g>
    <g clip-path="url(#pfc87226f0c)">
     <use style="fill:#fde725;stroke:#fde725;" x="162.702752" xlink:href="#C0_0_6a36443bca" y="301.7024"/>
    </g>
    <g clip-path="url(#pfc87226f0c)">
     <use style="fill:#fde725;stroke:#fde725;" x="136.852666" xlink:href="#C0_0_6a36443bca" y="301.383555"/>
    </g>
    <g clip-path="url(#pfc87226f0c)">
     <use style="fill:#fde725;stroke:#fde725;" x="284.561125" xlink:href="#C0_0_6a36443bca" y="187.177671"/>
    </g>
    <g clip-path="url(#pfc87226f0c)">
     <use style="fill:#fde725;stroke:#fde725;" x="218.40336" xlink:href="#C0_0_6a36443bca" y="266.262667"/>
    </g>
    <g clip-path="url(#pfc87226f0c)">
     <use style="fill:#fde725;stroke:#fde725;" x="177.477861" xlink:href="#C0_0_6a36443bca" y="292.857438"/>
    </g>
    <g clip-path="url(#pfc87226f0c)">
     <use style="fill:#fde725;stroke:#fde725;" x="281.293796" xlink:href="#C0_0_6a36443bca" y="198.814524"/>
    </g>
    <g clip-path="url(#pfc87226f0c)">
     <use style="fill:#fde725;stroke:#fde725;" x="286.389541" xlink:href="#C0_0_6a36443bca" y="196.578231"/>
    </g>
    <g clip-path="url(#pfc87226f0c)">
     <use style="fill:#fde725;stroke:#fde725;" x="198.318436" xlink:href="#C0_0_6a36443bca" y="255.259391"/>
    </g>
    <g clip-path="url(#pfc87226f0c)">
     <use style="fill:#fde725;stroke:#fde725;" x="120.381102" xlink:href="#C0_0_6a36443bca" y="291.624803"/>
    </g>
    <g clip-path="url(#pfc87226f0c)">
     <use style="fill:#fde725;stroke:#fde725;" x="180.987886" xlink:href="#C0_0_6a36443bca" y="288.312053"/>
    </g>
    <g clip-path="url(#pfc87226f0c)">
     <use style="fill:#fde725;stroke:#fde725;" x="160.114273" xlink:href="#C0_0_6a36443bca" y="294.805232"/>
    </g>
    <g clip-path="url(#pfc87226f0c)">
     <use style="fill:#fde725;stroke:#fde725;" x="94.99789" xlink:href="#C0_0_6a36443bca" y="275.79432"/>
    </g>
    <g clip-path="url(#pfc87226f0c)">
     <use style="fill:#fde725;stroke:#fde725;" x="111.707477" xlink:href="#C0_0_6a36443bca" y="287.640533"/>
    </g>
    <g clip-path="url(#pfc87226f0c)">
     <use style="fill:#fde725;stroke:#fde725;" x="162.180622" xlink:href="#C0_0_6a36443bca" y="299.73033"/>
    </g>
    <g clip-path="url(#pfc87226f0c)">
     <use style="fill:#fde725;stroke:#fde725;" x="251.081725" xlink:href="#C0_0_6a36443bca" y="234.747562"/>
    </g>
    <g clip-path="url(#pfc87226f0c)">
     <use style="fill:#fde725;stroke:#fde725;" x="221.696066" xlink:href="#C0_0_6a36443bca" y="265.739601"/>
    </g>
    <g clip-path="url(#pfc87226f0c)">
     <use style="fill:#fde725;stroke:#fde725;" x="157.225297" xlink:href="#C0_0_6a36443bca" y="305.444036"/>
    </g>
    <g clip-path="url(#pfc87226f0c)">
     <use style="fill:#fde725;stroke:#fde725;" x="108.813039" xlink:href="#C0_0_6a36443bca" y="270.302255"/>
    </g>
    <g clip-path="url(#pfc87226f0c)">
     <use style="fill:#fde725;stroke:#fde725;" x="215.205685" xlink:href="#C0_0_6a36443bca" y="269.886215"/>
    </g>
    <g clip-path="url(#pfc87226f0c)">
     <use style="fill:#fde725;stroke:#fde725;" x="201.557085" xlink:href="#C0_0_6a36443bca" y="280.578716"/>
    </g>
    <g clip-path="url(#pfc87226f0c)">
     <use style="fill:#fde725;stroke:#fde725;" x="159.100485" xlink:href="#C0_0_6a36443bca" y="303.20706"/>
    </g>
    <g clip-path="url(#pfc87226f0c)">
     <use style="fill:#fde725;stroke:#fde725;" x="207.475397" xlink:href="#C0_0_6a36443bca" y="277.081527"/>
    </g>
    <g clip-path="url(#pfc87226f0c)">
     <use style="fill:#fde725;stroke:#fde725;" x="188.472367" xlink:href="#C0_0_6a36443bca" y="281.679486"/>
    </g>
    <g clip-path="url(#pfc87226f0c)">
     <use style="fill:#fde725;stroke:#fde725;" x="133.008408" xlink:href="#C0_0_6a36443bca" y="305.31144"/>
    </g>
    <g clip-path="url(#pfc87226f0c)">
     <use style="fill:#fde725;stroke:#fde725;" x="283.827425" xlink:href="#C0_0_6a36443bca" y="174.282053"/>
    </g>
    <g clip-path="url(#pfc87226f0c)">
     <use style="fill:#fde725;stroke:#fde725;" x="193.295707" xlink:href="#C0_0_6a36443bca" y="284.434864"/>
    </g>
    <g clip-path="url(#pfc87226f0c)">
     <use style="fill:#fde725;stroke:#fde725;" x="237.022788" xlink:href="#C0_0_6a36443bca" y="239.017332"/>
    </g>
    <g clip-path="url(#pfc87226f0c)">
     <use style="fill:#fde725;stroke:#fde725;" x="135.381631" xlink:href="#C0_0_6a36443bca" y="307.8"/>
    </g>
    <g clip-path="url(#pfc87226f0c)">
     <use style="fill:#fde725;stroke:#fde725;" x="97.380042" xlink:href="#C0_0_6a36443bca" y="181.674515"/>
    </g>
    <g clip-path="url(#pfc87226f0c)">
     <use style="fill:#fde725;stroke:#fde725;" x="115.571803" xlink:href="#C0_0_6a36443bca" y="300.41523"/>
    </g>
    <g clip-path="url(#pfc87226f0c)">
     <use style="fill:#fde725;stroke:#fde725;" x="112.309689" xlink:href="#C0_0_6a36443bca" y="290.337919"/>
    </g>
    <g clip-path="url(#pfc87226f0c)">
     <use style="fill:#fde725;stroke:#fde725;" x="120.181567" xlink:href="#C0_0_6a36443bca" y="294.274706"/>
    </g>
    <g clip-path="url(#pfc87226f0c)">
     <use style="fill:#fde725;stroke:#fde725;" x="311.318182" xlink:href="#C0_0_6a36443bca" y="136.669146"/>
    </g>
   </g>
   <g id="matplotlib.axis_1">
    <g id="xtick_1">
     <g id="line2d_1">
      <defs>
       <path d="M 0 0 
L 0 3.5 
" id="m080818e2fe" style="stroke:#000000;stroke-width:0.8;"/>
      </defs>
      <g>
       <use style="stroke:#000000;stroke-width:0.8;" x="73.918344" xlink:href="#m080818e2fe" y="320.4"/>
      </g>
     </g>
     <g id="text_1">
      <!-- −10 -->
      <defs>
       <path d="M 10.59375 35.5 
L 73.1875 35.5 
L 73.1875 27.203125 
L 10.59375 27.203125 
z
" id="DejaVuSans-8722"/>
       <path d="M 12.40625 8.296875 
L 28.515625 8.296875 
L 28.515625 63.921875 
L 10.984375 60.40625 
L 10.984375 69.390625 
L 28.421875 72.90625 
L 38.28125 72.90625 
L 38.28125 8.296875 
L 54.390625 8.296875 
L 54.390625 0 
L 12.40625 0 
z
" id="DejaVuSans-49"/>
       <path d="M 31.78125 66.40625 
Q 24.171875 66.40625 20.328125 58.90625 
Q 16.5 51.421875 16.5 36.375 
Q 16.5 21.390625 20.328125 13.890625 
Q 24.171875 6.390625 31.78125 6.390625 
Q 39.453125 6.390625 43.28125 13.890625 
Q 47.125 21.390625 47.125 36.375 
Q 47.125 51.421875 43.28125 58.90625 
Q 39.453125 66.40625 31.78125 66.40625 
z
M 31.78125 74.21875 
Q 44.046875 74.21875 50.515625 64.515625 
Q 56.984375 54.828125 56.984375 36.375 
Q 56.984375 17.96875 50.515625 8.265625 
Q 44.046875 -1.421875 31.78125 -1.421875 
Q 19.53125 -1.421875 13.0625 8.265625 
Q 6.59375 17.96875 6.59375 36.375 
Q 6.59375 54.828125 13.0625 64.515625 
Q 19.53125 74.21875 31.78125 74.21875 
z
" id="DejaVuSans-48"/>
      </defs>
      <g transform="translate(63.366001 334.998438)scale(0.1 -0.1)">
       <use xlink:href="#DejaVuSans-8722"/>
       <use x="83.789062" xlink:href="#DejaVuSans-49"/>
       <use x="147.412109" xlink:href="#DejaVuSans-48"/>
      </g>
     </g>
    </g>
    <g id="xtick_2">
     <g id="line2d_2">
      <g>
       <use style="stroke:#000000;stroke-width:0.8;" x="130.303212" xlink:href="#m080818e2fe" y="320.4"/>
      </g>
     </g>
     <g id="text_2">
      <!-- 0 -->
      <g transform="translate(127.121962 334.998438)scale(0.1 -0.1)">
       <use xlink:href="#DejaVuSans-48"/>
      </g>
     </g>
    </g>
    <g id="xtick_3">
     <g id="line2d_3">
      <g>
       <use style="stroke:#000000;stroke-width:0.8;" x="186.688079" xlink:href="#m080818e2fe" y="320.4"/>
      </g>
     </g>
     <g id="text_3">
      <!-- 10 -->
      <g transform="translate(180.325579 334.998438)scale(0.1 -0.1)">
       <use xlink:href="#DejaVuSans-49"/>
       <use x="63.623047" xlink:href="#DejaVuSans-48"/>
      </g>
     </g>
    </g>
    <g id="xtick_4">
     <g id="line2d_4">
      <g>
       <use style="stroke:#000000;stroke-width:0.8;" x="243.072946" xlink:href="#m080818e2fe" y="320.4"/>
      </g>
     </g>
     <g id="text_4">
      <!-- 20 -->
      <defs>
       <path d="M 19.1875 8.296875 
L 53.609375 8.296875 
L 53.609375 0 
L 7.328125 0 
L 7.328125 8.296875 
Q 12.9375 14.109375 22.625 23.890625 
Q 32.328125 33.6875 34.8125 36.53125 
Q 39.546875 41.84375 41.421875 45.53125 
Q 43.3125 49.21875 43.3125 52.78125 
Q 43.3125 58.59375 39.234375 62.25 
Q 35.15625 65.921875 28.609375 65.921875 
Q 23.96875 65.921875 18.8125 64.3125 
Q 13.671875 62.703125 7.8125 59.421875 
L 7.8125 69.390625 
Q 13.765625 71.78125 18.9375 73 
Q 24.125 74.21875 28.421875 74.21875 
Q 39.75 74.21875 46.484375 68.546875 
Q 53.21875 62.890625 53.21875 53.421875 
Q 53.21875 48.921875 51.53125 44.890625 
Q 49.859375 40.875 45.40625 35.40625 
Q 44.1875 33.984375 37.640625 27.21875 
Q 31.109375 20.453125 19.1875 8.296875 
z
" id="DejaVuSans-50"/>
      </defs>
      <g transform="translate(236.710446 334.998438)scale(0.1 -0.1)">
       <use xlink:href="#DejaVuSans-50"/>
       <use x="63.623047" xlink:href="#DejaVuSans-48"/>
      </g>
     </g>
    </g>
    <g id="xtick_5">
     <g id="line2d_5">
      <g>
       <use style="stroke:#000000;stroke-width:0.8;" x="299.457814" xlink:href="#m080818e2fe" y="320.4"/>
      </g>
     </g>
     <g id="text_5">
      <!-- 30 -->
      <defs>
       <path d="M 40.578125 39.3125 
Q 47.65625 37.796875 51.625 33 
Q 55.609375 28.21875 55.609375 21.1875 
Q 55.609375 10.40625 48.1875 4.484375 
Q 40.765625 -1.421875 27.09375 -1.421875 
Q 22.515625 -1.421875 17.65625 -0.515625 
Q 12.796875 0.390625 7.625 2.203125 
L 7.625 11.71875 
Q 11.71875 9.328125 16.59375 8.109375 
Q 21.484375 6.890625 26.8125 6.890625 
Q 36.078125 6.890625 40.9375 10.546875 
Q 45.796875 14.203125 45.796875 21.1875 
Q 45.796875 27.640625 41.28125 31.265625 
Q 36.765625 34.90625 28.71875 34.90625 
L 20.21875 34.90625 
L 20.21875 43.015625 
L 29.109375 43.015625 
Q 36.375 43.015625 40.234375 45.921875 
Q 44.09375 48.828125 44.09375 54.296875 
Q 44.09375 59.90625 40.109375 62.90625 
Q 36.140625 65.921875 28.71875 65.921875 
Q 24.65625 65.921875 20.015625 65.03125 
Q 15.375 64.15625 9.8125 62.3125 
L 9.8125 71.09375 
Q 15.4375 72.65625 20.34375 73.4375 
Q 25.25 74.21875 29.59375 74.21875 
Q 40.828125 74.21875 47.359375 69.109375 
Q 53.90625 64.015625 53.90625 55.328125 
Q 53.90625 49.265625 50.4375 45.09375 
Q 46.96875 40.921875 40.578125 39.3125 
z
" id="DejaVuSans-51"/>
      </defs>
      <g transform="translate(293.095314 334.998438)scale(0.1 -0.1)">
       <use xlink:href="#DejaVuSans-51"/>
       <use x="63.623047" xlink:href="#DejaVuSans-48"/>
      </g>
     </g>
    </g>
   </g>
   <g id="matplotlib.axis_2">
    <g id="ytick_1">
     <g id="line2d_6">
      <defs>
       <path d="M 0 0 
L -3.5 0 
" id="mf2e6a7d839" style="stroke:#000000;stroke-width:0.8;"/>
      </defs>
      <g>
       <use style="stroke:#000000;stroke-width:0.8;" x="45" xlink:href="#mf2e6a7d839" y="296.555592"/>
      </g>
     </g>
     <g id="text_6">
      <!-- −5 -->
      <defs>
       <path d="M 10.796875 72.90625 
L 49.515625 72.90625 
L 49.515625 64.59375 
L 19.828125 64.59375 
L 19.828125 46.734375 
Q 21.96875 47.46875 24.109375 47.828125 
Q 26.265625 48.1875 28.421875 48.1875 
Q 40.625 48.1875 47.75 41.5 
Q 54.890625 34.8125 54.890625 23.390625 
Q 54.890625 11.625 47.5625 5.09375 
Q 40.234375 -1.421875 26.90625 -1.421875 
Q 22.3125 -1.421875 17.546875 -0.640625 
Q 12.796875 0.140625 7.71875 1.703125 
L 7.71875 11.625 
Q 12.109375 9.234375 16.796875 8.0625 
Q 21.484375 6.890625 26.703125 6.890625 
Q 35.15625 6.890625 40.078125 11.328125 
Q 45.015625 15.765625 45.015625 23.390625 
Q 45.015625 31 40.078125 35.4375 
Q 35.15625 39.890625 26.703125 39.890625 
Q 22.75 39.890625 18.8125 39.015625 
Q 14.890625 38.140625 10.796875 36.28125 
z
" id="DejaVuSans-53"/>
      </defs>
      <g transform="translate(23.257812 300.35481)scale(0.1 -0.1)">
       <use xlink:href="#DejaVuSans-8722"/>
       <use x="83.789062" xlink:href="#DejaVuSans-53"/>
      </g>
     </g>
    </g>
    <g id="ytick_2">
     <g id="line2d_7">
      <g>
       <use style="stroke:#000000;stroke-width:0.8;" x="45" xlink:href="#mf2e6a7d839" y="262.113624"/>
      </g>
     </g>
     <g id="text_7">
      <!-- 0 -->
      <g transform="translate(31.6375 265.912842)scale(0.1 -0.1)">
       <use xlink:href="#DejaVuSans-48"/>
      </g>
     </g>
    </g>
    <g id="ytick_3">
     <g id="line2d_8">
      <g>
       <use style="stroke:#000000;stroke-width:0.8;" x="45" xlink:href="#mf2e6a7d839" y="227.671656"/>
      </g>
     </g>
     <g id="text_8">
      <!-- 5 -->
      <g transform="translate(31.6375 231.470874)scale(0.1 -0.1)">
       <use xlink:href="#DejaVuSans-53"/>
      </g>
     </g>
    </g>
    <g id="ytick_4">
     <g id="line2d_9">
      <g>
       <use style="stroke:#000000;stroke-width:0.8;" x="45" xlink:href="#mf2e6a7d839" y="193.229688"/>
      </g>
     </g>
     <g id="text_9">
      <!-- 10 -->
      <g transform="translate(25.275 197.028906)scale(0.1 -0.1)">
       <use xlink:href="#DejaVuSans-49"/>
       <use x="63.623047" xlink:href="#DejaVuSans-48"/>
      </g>
     </g>
    </g>
    <g id="ytick_5">
     <g id="line2d_10">
      <g>
       <use style="stroke:#000000;stroke-width:0.8;" x="45" xlink:href="#mf2e6a7d839" y="158.78772"/>
      </g>
     </g>
     <g id="text_10">
      <!-- 15 -->
      <g transform="translate(25.275 162.586938)scale(0.1 -0.1)">
       <use xlink:href="#DejaVuSans-49"/>
       <use x="63.623047" xlink:href="#DejaVuSans-53"/>
      </g>
     </g>
    </g>
    <g id="ytick_6">
     <g id="line2d_11">
      <g>
       <use style="stroke:#000000;stroke-width:0.8;" x="45" xlink:href="#mf2e6a7d839" y="124.345752"/>
      </g>
     </g>
     <g id="text_11">
      <!-- 20 -->
      <g transform="translate(25.275 128.14497)scale(0.1 -0.1)">
       <use xlink:href="#DejaVuSans-50"/>
       <use x="63.623047" xlink:href="#DejaVuSans-48"/>
      </g>
     </g>
    </g>
    <g id="ytick_7">
     <g id="line2d_12">
      <g>
       <use style="stroke:#000000;stroke-width:0.8;" x="45" xlink:href="#mf2e6a7d839" y="89.903783"/>
      </g>
     </g>
     <g id="text_12">
      <!-- 25 -->
      <g transform="translate(25.275 93.703002)scale(0.1 -0.1)">
       <use xlink:href="#DejaVuSans-50"/>
       <use x="63.623047" xlink:href="#DejaVuSans-53"/>
      </g>
     </g>
    </g>
    <g id="ytick_8">
     <g id="line2d_13">
      <g>
       <use style="stroke:#000000;stroke-width:0.8;" x="45" xlink:href="#mf2e6a7d839" y="55.461815"/>
      </g>
     </g>
     <g id="text_13">
      <!-- 30 -->
      <g transform="translate(25.275 59.261034)scale(0.1 -0.1)">
       <use xlink:href="#DejaVuSans-51"/>
       <use x="63.623047" xlink:href="#DejaVuSans-48"/>
      </g>
     </g>
    </g>
   </g>
   <g id="patch_3">
    <path d="M 45 320.4 
L 45 43.2 
" style="fill:none;stroke:#000000;stroke-linecap:square;stroke-linejoin:miter;stroke-width:0.8;"/>
   </g>
   <g id="patch_4">
    <path d="M 324 320.4 
L 324 43.2 
" style="fill:none;stroke:#000000;stroke-linecap:square;stroke-linejoin:miter;stroke-width:0.8;"/>
   </g>
   <g id="patch_5">
    <path d="M 45 320.4 
L 324 320.4 
" style="fill:none;stroke:#000000;stroke-linecap:square;stroke-linejoin:miter;stroke-width:0.8;"/>
   </g>
   <g id="patch_6">
    <path d="M 45 43.2 
L 324 43.2 
" style="fill:none;stroke:#000000;stroke-linecap:square;stroke-linejoin:miter;stroke-width:0.8;"/>
   </g>
  </g>
 </g>
 <defs>
  <clipPath id="pfc87226f0c">
   <rect height="277.2" width="279" x="45" y="43.2"/>
  </clipPath>
 </defs>
</svg>
